<svg width="136" height="114" viewBox="0 0 136 114" fill="none" xmlns="http://www.w3.org/2000/svg">
<g clip-path="url(#clip0)">
<path fill-rule="evenodd" clip-rule="evenodd" d="M77.7269 7.8708C78.0104 10.2035 74.063 10.8754 72.823 9.37361C71.88 7.60093 76.5186 5.37541 77.7269 7.8708Z" fill="#4B3900"/>
<path fill-rule="evenodd" clip-rule="evenodd" d="M46.4155 11.628C47.6927 11.8585 49.3288 11.7323 49.0558 13.5066C48.0348 13.0213 46.7254 12.8222 46.4155 11.628Z" fill="#4B3900"/>
<path fill-rule="evenodd" clip-rule="evenodd" d="M78.8592 15.0091C79.2783 16.4342 77.0644 18.1367 76.2182 19.5178C75.2825 19.3227 74.8746 18.602 74.3323 18.015C74.4544 15.7911 76.8053 12.9511 78.8592 15.0091Z" fill="#4B3900"/>
<path fill-rule="evenodd" clip-rule="evenodd" d="M51.6971 15.3849C51.3524 16.0436 50.9961 16.6903 49.8108 16.5122C49.8108 16.1364 49.8108 15.7607 49.8108 15.3849C50.7492 15.3439 50.9787 14.6812 51.6971 15.3849Z" fill="#4B3900"/>
<path fill-rule="evenodd" clip-rule="evenodd" d="M79.9905 21.0206C81.7662 21.1784 80.4686 22.2185 81.1225 23.6508C79.4163 24.0912 79.8019 21.3194 79.9905 21.0206Z" fill="#4B3900"/>
<path fill-rule="evenodd" clip-rule="evenodd" d="M71.6913 21.3964C73.4048 21.242 74.0909 23.5236 73.5776 24.402C71.7127 24.6312 71.8392 22.8776 71.6913 21.3964Z" fill="#4B3900"/>
<path fill-rule="evenodd" clip-rule="evenodd" d="M87.9134 22.148C88.4161 22.148 88.9189 22.148 89.422 22.148C89.8899 23.234 89.6146 23.8603 88.29 24.0262C87.9733 23.5905 87.7929 23.0192 87.9134 22.148Z" fill="#4B3900"/>
<path fill-rule="evenodd" clip-rule="evenodd" d="M54.3374 24.0263C55.3245 23.9203 55.96 24.1633 55.8467 25.1536C55.1411 25.8914 54.0289 25.371 54.3374 24.0263Z" fill="#4B3900"/>
<path fill-rule="evenodd" clip-rule="evenodd" d="M58.4876 26.2806C58.0053 26.7945 56.7067 26.7945 56.224 26.2806C56.1532 24.4407 58.5581 24.4407 58.4876 26.2806Z" fill="#4B3900"/>
<path fill-rule="evenodd" clip-rule="evenodd" d="M24.1576 26.6564C22.5595 26.3216 22.2401 26.8918 21.1397 25.9048C21.601 24.386 23.8946 25.6887 24.1576 26.6564Z" fill="#4B3900"/>
<path fill-rule="evenodd" clip-rule="evenodd" d="M18.1218 29.662C19.0816 29.708 19.5843 30.209 19.6308 31.1649C18.5837 32.0223 17.3477 30.792 18.1218 29.662Z" fill="#4B3900"/>
<path fill-rule="evenodd" clip-rule="evenodd" d="M71.6913 30.0378C73.0837 29.9093 73.062 32.3197 72.4457 33.0438C71.4865 32.769 70.2278 30.4352 71.6913 30.0378Z" fill="#4B3900"/>
<path fill-rule="evenodd" clip-rule="evenodd" d="M85.2724 33.0438C83.9877 32.3847 83.8668 33.1654 83.3861 34.1708C82.4267 34.1249 81.9236 33.6242 81.8771 32.668C83.1639 31.7574 83.8691 32.4689 84.1404 30.4136C85.17 30.1401 84.9 31.1603 85.6497 31.1652C85.9609 32.2269 85.118 32.1384 85.2724 33.0438Z" fill="#4B3900"/>
<path fill-rule="evenodd" clip-rule="evenodd" d="M78.1049 31.1648C79.0133 31.011 78.9244 31.8511 79.9908 31.5406C80.2806 33.3851 80.8719 32.9716 79.9908 34.5466C79.0037 33.776 78.7216 32.3037 78.1049 31.1648Z" fill="#F6E7A1"/>
<path fill-rule="evenodd" clip-rule="evenodd" d="M10.1996 33.4196C11.5917 33.4107 12.7971 33.5878 12.8403 34.9224C11.9638 34.4171 10.0215 34.9742 10.1996 33.4196Z" fill="#4B3900"/>
<path fill-rule="evenodd" clip-rule="evenodd" d="M73.5777 40.9336C73.4183 39.6478 74.7077 39.8046 75.087 39.055C74.0867 37.5673 72.0967 37.643 70.5601 37.5522C71.4856 35.9697 72.7433 34.7171 74.3323 33.795C74.547 35.0109 74.2181 35.6847 73.5777 36.0494C76.3678 36.799 75.9032 38.8625 75.8413 40.9336C75.3589 41.4471 74.0604 41.4471 73.5777 40.9336Z" fill="#4B3900"/>
<path fill-rule="evenodd" clip-rule="evenodd" d="M30.5709 34.9224C30.9314 37.0348 30.0592 37.9188 29.4389 39.055C28.0969 38.8891 27.787 37.6952 26.7983 37.1764C26.2758 34.2547 28.92 33.6029 30.5709 34.9224Z" fill="#4B3900"/>
<path fill-rule="evenodd" clip-rule="evenodd" d="M76.9725 35.6736C77.1326 36.4589 76.7141 36.6681 76.5952 37.1764C76.0997 37.0436 76.0019 36.515 75.4633 36.4248C75.5545 35.7641 76.1129 35.5687 76.9725 35.6736Z" fill="#4B3900"/>
<path fill-rule="evenodd" clip-rule="evenodd" d="M59.6196 44.3146C56.5671 40.0541 62.5467 36.0018 63.0145 40.5575C63.2045 42.4098 61.685 43.7943 59.6196 44.3146Z" fill="#4B3900"/>
<path fill-rule="evenodd" clip-rule="evenodd" d="M13.2176 38.6792C18.107 41.6986 12.6888 47.5396 10.577 50.3262C9.87238 49.6579 10.8835 49.3713 10.577 48.0722C9.22276 47.761 8.75193 48.9192 7.93604 48.0722C7.37993 45.7647 9.83847 46.4598 10.954 45.8178C9.77262 42.6213 11.4281 40.0541 13.2176 38.6792Z" fill="#4B3900"/>
<path fill-rule="evenodd" clip-rule="evenodd" d="M78.4812 41.309C79.4683 41.2031 80.1041 41.4461 79.9905 42.4364C79.655 42.7282 79.1384 42.8404 78.4812 42.8122C78.4812 42.3108 78.4812 41.8101 78.4812 41.309Z" fill="#4B3900"/>
<path fill-rule="evenodd" clip-rule="evenodd" d="M66.7868 42.0606C67.8302 42.3997 68.5634 43.0473 69.0507 43.9392C68.3626 44.436 66.6097 43.5883 66.7868 42.0606Z" fill="#4B3900"/>
<path fill-rule="evenodd" clip-rule="evenodd" d="M4.91801 42.4364C5.41321 42.5692 5.51166 43.0978 6.04999 43.188C5.95911 43.849 5.4007 44.0445 4.54101 43.9395C4.381 43.1539 4.79915 42.9443 4.91801 42.4364Z" fill="#4B3900"/>
<path fill-rule="evenodd" clip-rule="evenodd" d="M77.3499 43.5634C78.2247 43.4437 78.7986 43.6238 79.2362 43.9392C79.037 44.2415 78.8427 44.5491 78.8588 45.0662C77.6781 45.2404 77.1754 44.7396 77.3499 43.5634Z" fill="#4B3900"/>
<path fill-rule="evenodd" clip-rule="evenodd" d="M36.2297 43.9392C37.6824 43.6431 37.6824 45.7381 36.2297 45.442C36.2297 44.941 36.2297 44.4399 36.2297 43.9392Z" fill="#4B3900"/>
<path fill-rule="evenodd" clip-rule="evenodd" d="M32.0798 44.6905C33.2019 44.7233 33.0893 46.931 31.7028 46.569C31.284 45.3892 31.526 45.5765 32.0798 44.6905Z" fill="#4B3900"/>
<path fill-rule="evenodd" clip-rule="evenodd" d="M20.3854 46.1933C21.3455 46.2395 21.8483 46.7402 21.8944 47.6961C21.5585 47.9879 21.0423 48.0997 20.3854 48.0719C19.9011 47.5784 19.9011 46.6871 20.3854 46.1933Z" fill="#4B3900"/>
<path fill-rule="evenodd" clip-rule="evenodd" d="M73.2 46.1933C74.4077 46.1182 74.8311 46.8229 75.0866 47.6961C74.6401 48.1286 73.7528 48.1214 72.823 48.0719C72.6682 47.1668 73.5121 47.255 73.2 46.1933Z" fill="#F6E7A1"/>
<path fill-rule="evenodd" clip-rule="evenodd" d="M90.5536 46.1932C91.5404 46.0873 92.1765 46.3306 92.0629 47.3206C91.4163 47.999 90.5793 47.2052 90.5536 46.1932Z" fill="#4B3900"/>
<path fill-rule="evenodd" clip-rule="evenodd" d="M36.9844 48.0722C36.4813 48.0722 35.9782 48.0722 35.4754 48.0722C35.138 46.3234 37.4743 46.1457 36.9844 48.0722Z" fill="#4B3900"/>
<path fill-rule="evenodd" clip-rule="evenodd" d="M93.9489 46.9445C94.7852 46.7379 94.4866 47.662 95.0809 47.6961C94.2439 48.4263 92.9799 50.3285 92.063 48.8234C92.0113 47.52 93.9736 48.222 93.9489 46.9445Z" fill="#4B3900"/>
<path fill-rule="evenodd" clip-rule="evenodd" d="M13.9719 47.3206C14.475 47.3206 14.9781 47.3206 15.4808 47.3206C15.6405 48.106 15.2224 48.3155 15.1035 48.8234C14.1098 48.9366 13.8655 48.3034 13.9719 47.3206Z" fill="#4B3900"/>
<path fill-rule="evenodd" clip-rule="evenodd" d="M18.1218 48.0722C18.9904 48.9815 17.7376 49.897 17.7445 51.0778C15.9813 50.843 16.8812 48.3066 18.1218 48.0722Z" fill="#4B3900"/>
<path fill-rule="evenodd" clip-rule="evenodd" d="M64.5235 48.0722C65.29 48.3457 66.0644 49.2025 65.2778 49.9504C63.972 50.2138 63.9249 48.6332 64.5235 48.0722Z" fill="#4B3900"/>
<path fill-rule="evenodd" clip-rule="evenodd" d="M52.4514 49.1992C52.9473 49.3317 53.045 49.8606 53.5834 49.9505C53.1139 51.1106 53.1362 52.7613 51.3194 52.5806C50.4239 51.4142 51.9901 50.1889 52.4514 49.1992Z" fill="#4B3900"/>
<path fill-rule="evenodd" clip-rule="evenodd" d="M62.2599 49.575C64.2104 49.2608 63.5061 51.59 65.2778 51.4536C64.9173 52.9731 63.5242 53.4633 62.2599 54.0837C61.3759 52.8069 61.3759 50.8515 62.2599 49.575Z" fill="#4B3900"/>
<path fill-rule="evenodd" clip-rule="evenodd" d="M47.5472 49.9504C47.9245 49.9504 48.3015 49.9504 48.6792 49.9504C48.6792 50.4515 48.6792 50.9525 48.6792 51.4532C47.6848 51.5667 47.4409 50.9332 47.5472 49.9504Z" fill="#4B3900"/>
<path fill-rule="evenodd" clip-rule="evenodd" d="M86.7814 52.2048C87.1946 53.2158 86.8522 54.1313 86.404 55.2105C83.8171 54.6563 81.9937 53.3404 80.3682 51.8294C81.4376 49.3445 85.0814 51.8192 86.7814 52.2048Z" fill="#4B3900"/>
<path fill-rule="evenodd" clip-rule="evenodd" d="M44.9066 51.0778C45.516 50.9719 45.5559 51.4329 46.0382 51.4536C46.1403 53.0112 45.5427 52.9174 46.0382 54.0837C45.1934 54.3412 44.148 55.2127 43.3979 54.4595C43.6719 52.4622 45.2223 52.9498 44.9066 51.0778Z" fill="#4B3900"/>
<path fill-rule="evenodd" clip-rule="evenodd" d="M31.7028 51.4532C32.0801 51.4532 32.4575 51.4532 32.8348 51.4532C32.9089 52.5291 32.8816 53.5037 31.7028 53.3318C31.7028 52.7059 31.7028 52.0796 31.7028 51.4532Z" fill="#4B3900"/>
<path fill-rule="evenodd" clip-rule="evenodd" d="M37.7387 51.4532C38.445 51.8772 39.5562 51.8976 39.2477 53.3318C38.8091 53.2705 38.5763 53.4148 38.493 53.7076C37.5984 53.4997 36.9277 52.2547 37.7387 51.4532Z" fill="#4B3900"/>
<path fill-rule="evenodd" clip-rule="evenodd" d="M41.134 52.2048C42.1283 52.0914 42.372 52.7252 42.266 53.7076C41.2792 53.8135 40.6431 53.5706 40.757 52.5803C41.0777 52.6498 41.1129 52.4337 41.134 52.2048Z" fill="#4B3900"/>
<path fill-rule="evenodd" clip-rule="evenodd" d="M46.4155 52.2048C47.3457 52.1553 48.233 52.1478 48.6791 52.5806C48.5675 54.0975 48.3529 55.5121 47.1702 55.962C45.1749 55.6229 46.8047 54.009 46.4155 52.2048Z" fill="#4B3900"/>
<path fill-rule="evenodd" clip-rule="evenodd" d="M54.3374 52.5806C54.9468 52.4747 54.9873 52.9357 55.4697 52.9564C55.5836 53.9464 54.9471 54.1897 53.9607 54.0837C53.8007 53.2981 54.2188 53.0885 54.3374 52.5806Z" fill="#4B3900"/>
<path fill-rule="evenodd" clip-rule="evenodd" d="M24.1577 53.3319C24.4609 53.1331 24.7701 52.94 25.2896 52.9561C25.6061 53.3922 25.7871 53.9634 25.667 54.8347C24.4856 55.0088 23.9828 54.5081 24.1577 53.3319Z" fill="#4B3900"/>
<path fill-rule="evenodd" clip-rule="evenodd" d="M21.5171 54.8347C21.8944 54.8347 22.2714 54.8347 22.649 54.8347C22.8087 55.62 22.3902 55.8299 22.2717 56.3375C21.6079 56.247 21.4114 55.6912 21.5171 54.8347Z" fill="#4B3900"/>
<path fill-rule="evenodd" clip-rule="evenodd" d="M41.511 54.8347C41.511 55.3357 41.511 55.8367 41.511 56.3375C40.5246 56.4434 39.8881 56.2004 40.0024 55.2101C40.3382 54.9186 40.8538 54.8065 41.511 54.8347Z" fill="#4B3900"/>
<path fill-rule="evenodd" clip-rule="evenodd" d="M59.6196 54.8347C60.1223 54.8347 60.6258 54.8347 61.1282 54.8347C61.4259 56.2814 59.3223 56.2814 59.6196 54.8347Z" fill="#4B3900"/>
<path fill-rule="evenodd" clip-rule="evenodd" d="M53.2061 55.5862C56.1842 53.9867 54.1655 58.8119 53.2061 55.5862V55.5862Z" fill="#4B3900"/>
<path fill-rule="evenodd" clip-rule="evenodd" d="M109.416 55.5862C109.794 55.5862 110.171 55.5862 110.548 55.5862C110.548 56.2122 110.548 56.8385 110.548 57.4645C109.77 56.8628 108.131 57.1169 107.907 55.9617C108.517 55.8558 108.558 56.3168 109.039 56.3375C109.406 56.327 109.332 55.8778 109.416 55.5862Z" fill="#4B3900"/>
<path fill-rule="evenodd" clip-rule="evenodd" d="M43.0203 56.7132C44.007 56.6073 44.6432 56.8503 44.5292 57.8403C44.1934 58.1321 43.6775 58.2443 43.0203 58.2161C43.0203 57.715 43.0203 57.214 43.0203 56.7132Z" fill="#4B3900"/>
<path fill-rule="evenodd" clip-rule="evenodd" d="M49.8108 57.0891C50.872 57.1596 51.4179 57.7429 51.3194 58.9676C50.8377 59.4818 49.5382 59.4818 49.0558 58.9676C48.9979 58.0331 49.6488 57.8042 49.8108 57.0891Z" fill="#4B3900"/>
<path fill-rule="evenodd" clip-rule="evenodd" d="M57.733 58.9673C56.653 59.0417 55.6742 59.0142 55.8467 57.8403C56.574 57.1097 58.1564 57.4474 57.733 58.9673Z" fill="#4B3900"/>
<path fill-rule="evenodd" clip-rule="evenodd" d="M109.039 57.8403C109.828 57.6812 110.038 58.098 110.548 58.2161C109.902 59.7904 110.02 59.8927 110.171 61.9732C108.345 61.788 108.215 59.9143 107.153 58.9673C108.355 58.6466 108.585 59.2946 109.039 59.7189C110.146 59.3995 108.548 58.7732 109.039 57.8403Z" fill="#4B3900"/>
<path fill-rule="evenodd" clip-rule="evenodd" d="M45.6612 58.2161C46.1643 58.2161 46.6671 58.2161 47.1702 58.2161C47.3299 59.0014 46.911 59.2109 46.7928 59.7189C46.2417 59.391 45.332 59.4205 45.6612 58.2161Z" fill="#4B3900"/>
<path fill-rule="evenodd" clip-rule="evenodd" d="M42.6436 60.4701C43.6297 60.3642 44.2658 60.6075 44.1522 61.5975C43.6567 62.0798 42.7615 62.0798 42.2659 61.5975C42.4658 61.2951 42.6591 60.9875 42.6436 60.4701Z" fill="#4B3900"/>
<path fill-rule="evenodd" clip-rule="evenodd" d="M107.153 61.222C108.605 60.9259 108.605 63.0209 107.153 62.7248C107.153 62.2238 107.153 61.7227 107.153 61.222Z" fill="#4B3900"/>
<path fill-rule="evenodd" clip-rule="evenodd" d="M110.548 64.9789C108.889 65.4576 108.147 64.0328 109.039 63.1003C110.225 63.0462 110.335 64.064 110.548 64.9789Z" fill="#4B3900"/>
<path fill-rule="evenodd" clip-rule="evenodd" d="M106.398 69.4873C105.875 73.0989 103.448 74.8148 100.362 75.8746C100.173 73.8072 102.042 73.7901 102.626 72.4932C102.535 71.4567 101.514 71.3469 100.739 70.9904C100.339 66.8742 104.98 67.047 106.398 69.4873Z" fill="#4B3900"/>
<path fill-rule="evenodd" clip-rule="evenodd" d="M83.0085 75.8746C83.6726 75.9651 83.8688 76.5213 83.7628 77.3774C83.3858 77.3774 83.0088 77.3774 82.6315 77.3774C82.4721 76.5921 82.8899 76.3826 83.0085 75.8746Z" fill="#4B3900"/>
<path fill-rule="evenodd" clip-rule="evenodd" d="M93.9489 76.6262C94.285 76.3344 94.8013 76.2222 95.4582 76.2504C95.5405 77.6181 97.1782 78.7714 96.2125 80.0073C94.1642 79.5531 95.2543 78.0405 93.9489 76.6262Z" fill="#4B3900"/>
<path fill-rule="evenodd" clip-rule="evenodd" d="M52.0741 81.8859C52.293 83.3565 51.7498 84.0674 51.3194 84.8915C49.4437 85.1876 49.1967 85.0072 47.5472 84.516C45.7037 80.8365 50.4844 79.1445 52.0741 81.8859Z" fill="#4B3900"/>
<path fill-rule="evenodd" clip-rule="evenodd" d="M64.9008 91.2785C63.3072 90.361 61.9079 89.2494 60.7509 87.8971C60.8731 79.1721 70.4063 87.7509 64.9008 91.2785Z" fill="#4B3900"/>
<path fill-rule="evenodd" clip-rule="evenodd" d="M72.8233 86.3946C73.3741 86.7222 74.2842 86.693 73.9549 87.8971C73.4522 87.8971 72.9491 87.8971 72.446 87.8971C72.286 87.1121 72.7041 86.9022 72.8233 86.3946Z" fill="#4B3900"/>
<path fill-rule="evenodd" clip-rule="evenodd" d="M56.6016 87.8971C57.2651 87.9879 57.461 88.5437 57.356 89.3999C56.9783 89.3999 56.6016 89.3999 56.224 89.3999C56.0643 88.6145 56.4825 88.4054 56.6016 87.8971Z" fill="#4B3900"/>
<path fill-rule="evenodd" clip-rule="evenodd" d="M55.0924 89.0241C56.06 89.0625 55.6985 90.4246 56.224 90.9027C60.1783 89.1166 60.8648 93.4755 59.2419 96.5381C57.6701 96.1388 57.5782 96.4411 55.8467 96.5381C56.0818 94.4802 55.6271 91.0594 53.9604 89.776C54.2646 89.4527 54.9936 89.5527 55.0924 89.0241Z" fill="#4B3900"/>
<path fill-rule="evenodd" clip-rule="evenodd" d="M52.4514 90.903C54.7022 90.9854 56.2615 96.6782 53.9607 97.6655C53.8093 95.8384 52.8827 93.4729 52.4514 90.903Z" fill="#4B3900"/>
<path fill-rule="evenodd" clip-rule="evenodd" d="M50.5651 97.6655C50.814 98.182 51.7982 101.187 52.4514 102.55C50.8051 102.813 50.7742 101.466 49.4335 101.423C49.4187 99.7802 50.8061 99.5343 50.5651 97.6655Z" fill="#F6E7A1"/>
<path fill-rule="evenodd" clip-rule="evenodd" d="M82.6318 36.0494C81.3454 35.7021 81.8524 33.5691 81.1225 32.668C82.2505 31.9121 82.3302 30.1129 83.3861 29.2862C82.557 28.0087 81.7467 26.9958 83.3861 25.9048C83.1747 25.3641 82.7974 24.988 82.2541 24.7778C80.4143 24.8241 81.1406 27.4257 79.6132 27.7834C79.3866 29.1364 80.7649 28.8905 80.7448 30.0378C79.6514 30.1378 78.5019 29.3489 77.3496 30.7891C76.503 29.8794 76.7184 27.9113 74.3319 28.5347C74.0198 27.4732 74.8634 27.5614 74.7093 26.6561C75.9934 26.6292 76.1145 27.7615 76.5956 28.5347C81.9489 28.3556 77.5323 23.6816 78.8592 21.7719C78.6919 21.4374 78.528 21.1 78.1049 21.0203C76.1438 20.8891 77.6525 22.7848 76.9729 23.2747C75.4682 22.9032 75.8373 24.3975 74.3323 24.0263C74.0596 25.1743 74.7178 25.3953 74.7096 26.2806C74.2289 25.7684 72.8618 25.6999 72.8233 26.6564C72.1671 25.6694 70.9755 24.9913 70.1824 25.1536C69.9008 23.9961 71.4829 24.6955 70.9367 23.275C69.9387 22.0644 68.4594 23.5377 69.0507 25.1536C67.3294 24.9959 67.6178 23.9558 67.9187 22.5238C67.2836 20.9446 64.266 22.0044 63.3915 22.5238C60.6949 19.5919 58.8738 20.2369 54.337 20.6452C53.0464 18.8351 49.9747 18.4059 49.0555 17.2638C47.8517 17.3169 47.9357 18.6528 46.7922 18.7666C47.7203 15.0579 44.8845 16.9306 44.9059 14.6336C43.3238 15.0255 42.2248 16.7388 43.0196 18.3908C41.1241 17.9924 42.1125 14.8268 43.0196 13.5063C40.8646 13.1892 39.9519 17.1582 38.8697 19.1424C37.4618 17.8616 39.9371 14.6267 40.756 13.1308C38.471 12.7393 37.4611 16.8582 35.8517 18.3908C35.6048 16.0692 38.7403 10.5174 41.1333 12.0035C42.3163 11.7438 41.6255 11.0014 41.5106 10.1252C42.8283 10.0593 43.4098 9.26049 43.7742 8.2466C49.0146 9.14441 52.6671 3.91131 58.8649 4.86519C60.0766 4.10477 61.9273 3.13973 63.7688 4.11395C64.1491 2.49506 67.5855 2.55966 67.5411 4.48974C68.2651 3.70735 68.9829 2.91938 70.182 2.61115C70.8797 2.66755 70.4138 3.88311 70.9364 4.11395C71.8069 4.22905 71.3555 3.02857 72.0683 2.9866C78.251 3.16564 83.4924 4.88454 86.4037 8.99817C88.8323 12.4301 91.0528 15.5396 90.1763 19.8939C89.0223 19.1089 89.5448 17.7652 88.6673 16.1368C86.0675 15.595 85.9786 12.5524 82.2538 13.1311C81.9015 13.4066 81.6829 13.8145 81.4988 14.2585C82.0882 16.5194 84.1905 19.2119 86.781 17.2644C87.135 18.6643 87.7935 19.7628 87.913 21.3971C89.0838 21.8903 88.9897 21.2954 90.5536 21.3971C90.497 23.4695 89.3989 24.505 89.4216 26.6571C85.5618 26.1836 87.9048 21.3758 86.4037 19.8943C85.0699 21.545 85.3369 19.223 84.1401 18.7672C81.5798 18.5813 82.2647 21.6286 83.7628 22.1486C85.0877 22.3687 85.0044 20.3724 86.027 21.3971C85.9599 23.4596 84.822 24.4555 83.7628 25.5297C83.7009 28.2268 85.4522 30.7363 87.913 27.7841C88.8043 28.7167 88.0631 30.1414 86.4037 29.6627C87.778 33.6347 82.5682 34.2216 82.6318 36.0494ZM85.6497 31.1648C84.9 31.1599 85.17 30.1401 84.1404 30.4133C83.8691 32.4686 83.1638 31.757 81.8771 32.6677C81.9235 33.6235 82.4266 34.1242 83.3861 34.1705C83.8671 33.1651 83.9876 32.3843 85.2724 33.0434C85.118 32.1384 85.9609 32.2269 85.6497 31.1648ZM72.8233 9.37362C74.0633 10.8754 78.0107 10.2036 77.7272 7.87081C76.5185 5.37542 71.88 7.60094 72.8233 9.37362ZM49.0558 13.5063C49.3288 11.7323 47.6927 11.8585 46.4155 11.6277C46.7253 12.8222 48.0348 13.0213 49.0558 13.5063ZM74.3323 18.015C74.8742 18.602 75.2825 19.3227 76.2182 19.5178C77.0644 18.1367 79.2787 16.4342 78.8592 15.0091C76.8053 12.9511 74.4544 15.7911 74.3323 18.015ZM49.8108 15.3849C49.8108 15.7606 49.8108 16.1364 49.8108 16.5122C50.9961 16.6903 51.3523 16.0436 51.6971 15.3849C50.9786 14.6812 50.7492 15.3439 49.8108 15.3849ZM81.1225 23.6508C80.4689 22.2188 81.7662 21.1787 79.9905 21.0206C79.8018 21.3194 79.4163 24.0912 81.1225 23.6508ZM73.5776 24.402C74.0913 23.5236 73.4051 21.242 71.6913 21.3964C71.8392 22.8776 71.7127 24.6312 73.5776 24.402ZM88.29 24.0263C89.6143 23.8603 89.8895 23.234 89.422 22.148C88.9189 22.148 88.4161 22.148 87.9133 22.148C87.7928 23.0192 87.9733 23.5905 88.29 24.0263Z" fill="#F6E7A1"/>
<path fill-rule="evenodd" clip-rule="evenodd" d="M76.9726 40.9336C78.2317 41.311 78.2099 40.4122 78.1046 39.4308C78.823 40.1348 79.0518 39.4721 79.9905 39.4308C80.1756 41.3845 81.6961 44.2671 79.9905 45.8181C78.8378 46.0896 78.6162 45.4342 77.7269 45.4423C76.2743 45.4978 77.8649 48.5854 75.4636 47.6967C76.4761 46.571 76.024 45.6948 75.841 43.9395C76.7003 44.0448 77.2591 43.849 77.3496 43.188C77.6245 42.1629 76.6006 42.4318 76.5953 41.6852C75.5387 42.1173 74.6339 42.1173 73.5773 41.6852C73.1832 40.8257 73.3373 39.4187 72.823 38.6795C71.4099 38.65 71.6822 40.2991 69.8054 39.8069C69.8054 40.1827 69.8054 40.5581 69.8054 40.9339C70.7125 42.3777 71.8096 39.8738 72.4457 40.9339C71.1402 42.7 73.2056 43.7789 73.2 45.4423C71.0362 45.4689 72.2202 42.1606 70.1821 42.0609C68.3883 43.2854 70.811 44.3114 70.9364 45.8181C70.4992 45.5027 69.9256 45.3227 69.0504 45.4423C67.9527 46.895 70.3941 46.9245 69.4278 48.0728C66.7759 47.902 69.3421 44.4858 66.4098 44.3153C65.8629 47.3291 67.6468 49.0139 70.1821 49.9511C71.8069 50.3102 71.6568 47.7735 72.823 48.8241C71.7714 51.1742 68.382 51.852 66.7865 52.5813C66.475 53.643 67.3182 53.5545 67.1641 54.4599C65.3401 53.7614 65.0714 54.5831 63.3912 54.8356C62.6718 58.5276 57.9714 56.1247 57.3557 60.0956C56.6784 60.1435 56.5595 59.6359 55.8464 59.7199C53.9598 59.97 55.6077 63.7403 53.5828 63.8528C53.2805 61.9237 53.9871 60.9994 54.3367 59.7199C54.4013 58.7797 53.7582 58.5436 53.2054 58.217C51.1716 59.1975 52.3718 63.3983 50.9418 64.9798C48.9643 64.2598 51.3537 61.1886 49.8098 60.4711C48.0822 62.147 48.453 65.5599 48.3009 67.61C45.735 67.4015 49.0252 63.4633 45.6606 63.8528C44.1203 65.6396 46.7083 68.153 45.6606 69.4886C43.5922 68.7934 45.5052 64.1322 43.397 63.4774C42.2979 65.8331 43.9225 68.7085 44.1513 70.9914C43.0848 70.6812 43.1741 71.521 42.265 71.3672C40.0919 68.5895 41.9064 63.3924 40.3787 61.2233C38.5497 63.5761 40.4518 69.9031 40.756 72.1188C37.099 72.1289 39.1944 66.4102 37.3608 64.6047C36.1527 65.5642 37.1563 68.8544 37.3608 71.3672C35.2921 70.5474 36.2778 66.685 34.7201 65.3563C33.873 66.2246 34.4172 68.8948 34.7201 69.8644C32.7196 69.2273 33.9941 65.3271 32.4565 64.2289C31.587 65.2415 32.3225 67.8523 32.0792 69.4886C30.7698 67.5398 30.7523 63.0537 30.1929 59.3444C28.0827 59.6228 28.8469 62.7628 28.6839 64.9802C26.2247 63.9089 28.575 59.2555 27.552 57.4658C26.4536 58 26.5168 59.691 26.043 60.8472C24.378 59.791 26.3614 57.3887 24.9113 56.3385C23.1884 59.6461 24.077 65.5524 25.2887 68.737C26.9886 68.1035 25.183 66.3151 25.666 64.6041C27.1776 65.7291 26.5803 68.9535 28.3069 69.8637C27.4166 69.122 25.7819 69.1223 24.5343 68.7367C23.6908 66.3207 22.9556 63.7967 22.2707 61.2223C20.6403 61.7499 22.3909 63.3232 21.8934 64.9795C21.1858 64.0561 21.2082 62.4058 20.7618 61.2223C17.8442 61.8136 20.9534 66.3023 20.7618 66.4823C18.2278 65.9564 19.7457 60.3976 16.9892 61.2223C16.9951 59.3572 15.1878 54.7041 17.7438 54.835C17.4067 56.6578 17.0827 60.0238 20.7618 59.7192C21.7703 58.0888 19.8734 54.9366 20.7618 53.3322C23.9078 53.9336 25.9422 50.402 29.4383 52.2051C30.1517 50.099 31.8332 51.2909 32.4565 49.1995C32.3847 48.8949 32.0779 48.8247 32.0792 48.448C30.2861 49.3025 27.7903 49.9485 26.043 48.8237C25.5675 49.7278 25.2818 50.8204 24.534 51.4536C22.9276 51.2316 22.0386 51.7238 20.7614 51.8294C20.873 50.3708 20.873 49.9062 20.7614 48.448C19.2248 49.0251 18.0892 52.5295 18.4978 54.835C17.1314 54.2051 16.3478 52.4226 14.7252 54.0834C14.7252 53.0817 14.7252 52.0796 14.7252 51.0778C11.5706 53.0105 14.0216 59.5743 13.9706 63.1006C10.3172 61.9227 13.0203 55.8735 11.7073 52.2048C9.67052 53.6925 10.6036 56.7487 10.5756 58.9673C8.73116 57.0894 10.4558 55.8233 9.82099 52.5803C8.31729 52.335 8.74038 54.0087 8.68934 55.2101C8.08088 55.9128 8.44767 52.4665 7.55737 52.2045C7.09312 52.3684 6.78264 52.6852 6.80305 53.3315C4.89667 52.9934 7.75262 49.7107 5.67108 49.1989C4.05345 49.492 6.01284 51.0162 4.91643 51.829C3.84372 49.9649 4.73237 47.8892 3.03046 48.0719C2.94058 46.6045 5.10838 47.3859 4.91643 45.8175C4.75806 44.9738 2.91456 45.8073 2.65314 45.0659C2.86715 43.1175 4.36262 43.4867 3.03046 41.6845C5.34051 40.8369 6.02766 41.2189 8.68902 40.9329C8.68902 40.4319 8.68902 39.9308 8.68902 39.4301C6.49652 39.903 5.36619 40.1112 3.78478 39.4301C6.1294 38.814 4.40312 36.2206 6.0484 35.2975C6.87615 35.7257 7.58997 36.2671 9.06667 36.0491C7.76348 34.4262 9.09235 32.4644 10.1986 31.1645C11.4702 31.5157 11.2924 32.8713 12.4619 31.5403C12.2723 30.0831 14.1517 29.4869 15.1025 28.1589C20.2817 28.4327 20.2715 23.538 25.2887 23.6505C26.5007 23.3203 25.8056 24.8887 26.7976 24.7778C28.6016 24.5706 28.8821 22.8461 30.5702 22.5235C30.5376 23.0566 30.508 23.5872 30.9476 23.6505C32.1655 23.9866 31.4777 22.4251 32.0795 22.1477C42.0414 20.436 54.1606 21.7748 63.3912 24.7775C63.7076 25.2136 63.8894 25.7845 63.7685 26.6561C69.6694 27.1309 72.5843 29.9877 75.4636 32.2919C75.4587 33.0385 74.4344 32.77 74.7093 33.7947C74.7811 34.099 75.0876 34.1692 75.0866 34.5462C75.946 34.6508 76.5047 34.4557 76.5953 33.7947C77.9472 34.4518 77.9982 36.4048 79.2362 37.1761C79.0413 38.9855 77.0964 39.0527 76.9726 40.9336ZM78.8592 45.0662C78.8428 44.5491 79.037 44.2415 79.2366 43.9392C78.799 43.6241 78.2251 43.4437 77.3503 43.5634C77.1754 44.7396 77.6782 45.2404 78.8592 45.0662ZM75.8413 40.9336C75.9032 38.8625 76.3678 36.799 73.5777 36.0494C74.2181 35.6847 74.547 35.0109 74.3323 33.795C72.7433 34.7171 71.4856 35.9697 70.5601 37.5522C72.0967 37.643 74.0867 37.5673 75.087 39.055C74.7077 39.8046 73.4183 39.6479 73.5777 40.9336C74.0604 41.4471 75.3589 41.4471 75.8413 40.9336ZM55.8467 57.8403C55.6742 59.0142 56.6527 59.0417 57.733 58.9673C58.1564 57.4474 56.574 57.1097 55.8467 57.8403ZM25.6667 54.8347C25.7872 53.9634 25.6061 53.3922 25.2893 52.9561C24.7701 52.94 24.4609 53.1331 24.1574 53.3318C23.9828 54.5081 24.4856 55.0088 25.6667 54.8347ZM21.1397 25.9049C22.2401 26.8919 22.5595 26.3216 24.1577 26.6564C23.8946 25.6888 21.601 24.386 21.1397 25.9049ZM55.8467 25.1536C55.96 24.1637 55.3242 23.9203 54.3374 24.0263C54.0289 25.371 55.1411 25.8914 55.8467 25.1536ZM56.224 26.2806C56.7067 26.7945 58.0053 26.7945 58.4876 26.2806C58.5581 24.4407 56.1532 24.4407 56.224 26.2806ZM19.6308 31.1648C19.5844 30.209 19.0816 29.7079 18.1218 29.662C17.3477 30.792 18.5837 32.0223 19.6308 31.1648ZM72.4457 33.0438C73.0621 32.3201 73.0838 29.9093 71.6914 30.0378C70.2278 30.4352 71.4866 32.769 72.4457 33.0438ZM12.8402 34.9224C12.7971 33.5878 11.5917 33.4107 10.1996 33.4196C10.0215 34.9742 11.9638 34.4171 12.8402 34.9224ZM26.7986 37.1764C27.7874 37.6948 28.0972 38.8891 29.4392 39.055C30.0592 37.9188 30.9314 37.0348 30.5712 34.9224C28.92 33.6029 26.2758 34.2547 26.7986 37.1764ZM75.4636 36.4252C76.0023 36.515 76.1001 37.0439 76.5956 37.1767C76.7141 36.6685 77.133 36.4593 76.9729 35.6739C76.1129 35.5687 75.5545 35.7641 75.4636 36.4252ZM63.0146 40.5578C62.5467 36.0018 56.5674 40.0545 59.6196 44.315C61.685 43.7943 63.2045 42.4098 63.0146 40.5578ZM10.954 45.8178C9.83844 46.4602 7.3799 45.7647 7.93601 48.0722C8.75157 48.9192 9.22274 47.761 10.577 48.0722C10.8835 49.3714 9.87235 49.658 10.577 50.3262C12.6888 47.54 18.107 41.6986 13.2176 38.6792C11.4281 40.0541 9.77259 42.6213 10.954 45.8178ZM78.4812 42.8119C79.1384 42.8401 79.655 42.7279 79.9905 42.4361C80.1041 41.4461 79.4683 41.2028 78.4812 41.3087C78.4812 41.8101 78.4812 42.3108 78.4812 42.8119ZM69.0508 43.9392C68.5635 43.0473 67.8302 42.3997 66.7868 42.0606C66.6097 43.5883 68.3626 44.436 69.0508 43.9392ZM4.54075 43.9392C5.40043 44.0445 5.95884 43.8487 6.04972 43.1876C5.51139 43.0978 5.41327 42.5692 4.91774 42.4361C4.79921 42.9443 4.38106 43.1539 4.54075 43.9392ZM36.2298 45.4417C37.6824 45.7378 37.6824 43.6431 36.2298 43.9389C36.2298 44.4399 36.2298 44.941 36.2298 45.4417ZM31.7029 46.5694C33.0893 46.9311 33.202 44.7236 32.0799 44.6908C31.5261 45.5765 31.2841 45.3892 31.7029 46.5694ZM20.3854 48.0722C21.0423 48.1001 21.5586 47.9882 21.8944 47.6964C21.8483 46.7405 21.3455 46.2395 20.3854 46.1936C19.9011 46.6871 19.9011 47.5784 20.3854 48.0722ZM35.4754 48.0722C35.9785 48.0722 36.4817 48.0722 36.9844 48.0722C37.4744 46.1457 35.138 46.3234 35.4754 48.0722ZM15.1035 48.8234C15.2224 48.3155 15.6405 48.106 15.4809 47.3206C14.9778 47.3206 14.4747 47.3206 13.9719 47.3206C13.8655 48.3034 14.1098 48.9366 15.1035 48.8234ZM17.7448 51.0778C17.7376 49.8973 18.9907 48.9818 18.1221 48.0722C16.8812 48.3066 15.9813 50.843 17.7448 51.0778ZM65.2778 49.9504C66.0644 49.2025 65.29 48.3457 64.5235 48.0722C63.9249 48.6332 63.972 50.2138 65.2778 49.9504ZM51.3195 52.5806C53.1363 52.7616 53.1139 51.1106 53.5834 49.9504C53.0451 49.8606 52.9473 49.3317 52.4514 49.1992C51.9902 50.1888 50.4239 51.4142 51.3195 52.5806ZM62.2599 54.0834C63.5242 53.4633 64.9173 52.9731 65.2778 51.4533C63.5061 51.59 64.2104 49.2605 62.2599 49.5747C61.3759 50.8515 61.3759 52.8069 62.2599 54.0834ZM48.6792 51.4533C48.6792 50.9525 48.6792 50.4515 48.6792 49.9504C48.3015 49.9504 47.9245 49.9504 47.5472 49.9504C47.4409 50.9332 47.6848 51.5667 48.6792 51.4533ZM43.398 54.4592C44.148 55.2124 45.1934 54.3408 46.0382 54.0834C45.5427 52.9174 46.1403 53.0112 46.0382 51.4533C45.5559 51.4329 45.516 50.9719 44.9066 51.0775C45.2223 52.9498 43.6719 52.4622 43.398 54.4592ZM31.7029 53.3318C32.8816 53.5037 32.9089 52.5291 32.8348 51.4533C32.4575 51.4533 32.0802 51.4533 31.7029 51.4533C31.7029 52.0796 31.7029 52.7059 31.7029 53.3318ZM38.4931 53.7076C38.5764 53.4148 38.8091 53.2705 39.2477 53.3318C39.5565 51.8976 38.445 51.8772 37.7387 51.4533C36.9278 52.2547 37.5985 53.4997 38.4931 53.7076ZM40.7567 52.5806C40.6431 53.5706 41.2792 53.8139 42.2656 53.708C42.3717 52.7255 42.128 52.0917 41.1337 52.2051C41.1129 52.4337 41.0777 52.6498 40.7567 52.5806ZM47.1702 55.962C48.3532 55.5121 48.5679 54.0975 48.6792 52.5806C48.233 52.1481 47.3457 52.1553 46.4156 52.2048C46.8047 54.009 45.1749 55.623 47.1702 55.962ZM53.9607 54.0834C54.9472 54.1893 55.5836 53.9464 55.4697 52.9561C54.9873 52.9354 54.9469 52.4747 54.3374 52.5803C54.2189 53.0885 53.8007 53.2981 53.9607 54.0834ZM22.2714 56.3375C22.3902 55.8299 22.8084 55.62 22.6487 54.8347C22.2714 54.8347 21.8941 54.8347 21.5167 54.8347C21.4114 55.6912 21.6079 56.247 22.2714 56.3375ZM40.0024 55.2104C39.8881 56.2004 40.5246 56.4437 41.511 56.3378C41.511 55.8371 41.511 55.336 41.511 54.835C40.8538 54.8065 40.3382 54.9186 40.0024 55.2104ZM61.1283 54.8347C60.6258 54.8347 60.1224 54.8347 59.6196 54.8347C59.3223 56.2814 61.4259 56.2814 61.1283 54.8347ZM53.2061 55.5862C54.1655 58.8119 56.1842 53.9867 53.2061 55.5862V55.5862ZM31.3255 59.7189C32.9649 61.5932 34.7274 63.3442 37.7391 63.8518C38.0528 62.4179 36.8774 59.5372 37.3617 56.7132C36.1369 56.9313 35.6062 56.4575 34.7211 56.3375C33.1868 57.4524 33.4044 60.0769 31.3255 59.7189ZM43.0203 58.2161C43.6775 58.2443 44.1938 58.1321 44.5293 57.8403C44.6429 56.8503 44.0067 56.6073 43.0203 56.7132C43.0203 57.214 43.0203 57.715 43.0203 58.2161ZM49.0558 58.9673C49.5382 59.4815 50.8374 59.4815 51.3195 58.9673C51.4179 57.7426 50.872 57.1592 49.8108 57.0887C49.6488 57.8042 48.9979 58.0331 49.0558 58.9673ZM46.7929 59.7189C46.9111 59.2109 47.3299 59.0014 47.1702 58.2161C46.6671 58.2161 46.1643 58.2161 45.6612 58.2161C45.332 59.4205 46.2417 59.391 46.7929 59.7189ZM42.266 61.5975C42.7615 62.0798 43.6567 62.0798 44.1523 61.5975C44.2659 60.6078 43.6297 60.3645 42.6436 60.4701C42.6591 60.9875 42.4658 61.2951 42.266 61.5975Z" fill="#F6E7A1"/>
<path fill-rule="evenodd" clip-rule="evenodd" d="M87.1591 34.5458C92.336 35.3665 96.8296 38.5669 96.9676 43.1869C98.2056 43.8328 99.5509 44.3716 101.495 44.3139C104.365 47.7619 108.562 47.7248 111.681 51.077C118.31 58.2025 115.554 72.2164 111.681 80.3826C114.525 80.543 118.187 80.8374 120.735 82.2609C122.011 85.156 122.624 88.3246 121.112 91.2781C120.154 91.8365 119.657 92.1614 118.471 92.7812C113.133 95.5691 106.943 102.015 101.495 104.428C99.2128 105.438 93.1054 107.632 89.8001 107.81C89.0602 107.849 87.9332 107.272 87.1591 107.434C84.7486 107.941 83.482 110.341 81.1232 111.191C76.06 113.015 70.7682 112.147 65.6559 113.445C64.6615 113.559 64.4176 112.925 64.5239 111.942C59.6895 114.423 43.6693 115.886 42.2664 108.937C41.5782 105.529 43.3592 103.28 46.0386 101.798C42.7849 98.6095 39.1335 93.9535 40.7571 87.1451C37.4751 87.431 30.1047 87.2428 29.4393 82.6367C16.7541 85.9312 3.96165 78.5401 1.1462 66.4809C3.20173 65.1466 6.04846 64.6003 7.93706 63.0995C5.27307 59.545 0.532475 56.9476 0.0145588 51.4521C-0.114838 50.0769 0.730356 48.9922 0.769208 47.695C0.899922 43.3443 -0.548136 38.9349 1.52353 34.5451C7.09812 30.9027 8.884 27.1239 16.2366 24.777C19.6338 23.6923 23.6876 20.5254 26.4223 19.8928C28.8779 19.3246 30.1288 20.3496 31.7039 19.1413C33.6791 17.6257 33.7081 14.7014 35.4765 12.3781C40.3093 6.02849 47.787 4.38403 55.8481 1.85847C57.0347 1.42793 56.7651 2.44838 57.3574 2.61004C67.7305 -2.3591 87.2467 -0.635937 89.4234 11.2514C90.1359 12.4201 91.8098 12.6323 92.441 13.8816C94.0866 22.2643 92.5217 29.0615 87.1591 34.5458ZM86.4048 29.6613C88.0642 30.1403 88.8054 28.7152 87.9141 27.7827C85.4529 30.7348 83.702 28.2253 83.7639 25.5283C84.8231 24.4541 85.961 23.4582 86.0281 21.3956C85.0055 20.3709 85.0888 22.3672 83.7639 22.1472C82.2658 21.6271 81.5809 18.5799 84.1412 18.7658C85.338 19.2216 85.071 21.5435 86.4048 19.8928C87.9059 21.374 85.5629 26.1821 89.4227 26.6556C89.4 24.5036 90.4981 23.4684 90.5547 21.3956C88.9908 21.294 89.0849 21.8888 87.9141 21.3956C87.7949 19.7613 87.1364 18.6628 86.7821 17.263C84.1916 19.2105 82.0893 16.518 81.4999 14.2571C81.684 13.8131 81.9026 13.4051 82.2549 13.1297C85.9794 12.5509 86.0683 15.5936 88.6684 16.1353C89.5459 17.7637 89.0233 19.1078 90.1774 19.8925C91.0538 15.5385 88.8334 12.429 86.4048 8.99673C83.4935 4.88311 78.2521 3.16421 72.0694 2.98517C71.3566 3.02714 71.8077 4.22762 70.9374 4.11252C70.4149 3.88167 70.8808 2.66611 70.1831 2.60971C68.9837 2.91795 68.2662 3.70591 67.5422 4.4883C67.5866 2.55856 64.1502 2.49363 63.7699 4.11252C61.9284 3.1383 60.0777 4.10334 58.866 4.86376C52.6681 3.90987 49.0157 9.14298 43.7753 8.24516C43.4109 9.25906 42.8297 10.0582 41.5117 10.1238C41.6266 10.9999 42.3177 11.7423 41.1344 12.002C38.7417 10.5159 35.6059 16.0678 35.8528 18.3894C37.4622 16.8567 38.472 12.7378 40.7571 13.1294C39.9382 14.6253 37.4629 17.8601 38.8708 19.1409C39.953 17.1568 40.8657 13.1877 43.0207 13.5048C42.1136 14.825 41.1252 17.991 43.0207 18.3894C42.2259 16.7374 43.3249 15.024 44.907 14.6322C44.8856 16.9292 47.7214 15.0565 46.7933 18.7652C47.9368 18.6514 47.8528 17.3155 49.0566 17.2623C49.9758 18.4045 53.0471 18.8337 54.3381 20.6437C58.8749 20.2355 60.6957 19.5905 63.3926 22.5223C64.2671 22.0029 67.2847 20.9431 67.9198 22.5223C67.6189 23.9543 67.3305 24.9944 69.0518 25.1522C68.4601 23.5362 69.9395 22.0629 70.9378 23.2736C71.484 24.6941 69.9019 23.9947 70.1835 25.1522C70.9766 24.9899 72.1682 25.668 72.8244 26.655C72.8626 25.6988 74.23 25.767 74.7107 26.2792C74.7189 25.3938 74.0608 25.1728 74.3334 24.0248C75.8381 24.3963 75.469 22.9021 76.974 23.2733C77.6536 22.7837 76.1449 20.8877 78.106 21.0189C78.529 21.0982 78.693 21.436 78.8603 21.7704C77.5334 23.6802 81.95 28.3539 76.5967 28.5332C76.1156 27.76 75.9948 26.6278 74.7104 26.6547C74.8648 27.56 74.0209 27.4715 74.333 28.5332C76.7195 27.9099 76.5041 29.878 77.3507 30.7876C78.503 29.3474 79.6521 30.1364 80.7459 30.0364C80.7663 28.889 79.3877 29.1353 79.6143 27.782C81.1417 27.4243 80.4153 24.8226 82.2552 24.7764C82.7982 24.9866 83.1758 25.3627 83.3872 25.9034C81.7478 26.9944 82.5581 28.0073 83.3872 29.2848C82.3313 30.1115 82.2516 31.9107 81.1236 32.6665C81.8535 33.5676 81.3465 35.7007 82.6329 36.0479C82.569 34.2208 87.7788 33.6339 86.4048 29.6613ZM79.2369 37.1756C77.999 36.4044 77.9482 34.4514 76.596 33.7942C76.5055 34.4553 75.9467 34.6504 75.0874 34.5458C75.0883 34.1687 74.7815 34.0985 74.71 33.7942C74.4351 32.7692 75.4594 33.0381 75.4644 32.2914C72.5854 29.9875 69.6701 27.1305 63.7693 26.6556C63.8901 25.7844 63.7084 25.2132 63.3919 24.777C54.1613 21.7744 42.0421 20.4355 32.0802 22.1472C31.4784 22.4246 32.1665 23.9861 30.9483 23.65C30.5087 23.5867 30.5387 23.0562 30.5709 22.523C28.8829 22.8457 28.6023 24.5701 26.7984 24.7774C25.8063 24.8885 26.5014 23.3198 25.2894 23.65C20.2732 23.5375 20.2837 28.4322 15.1043 28.1584C14.1534 29.4865 12.274 30.0826 12.4636 31.5398C11.2941 32.8708 11.4719 31.5153 10.2004 31.1641C9.09439 32.4636 7.76552 34.4258 9.06838 36.0486C7.59167 36.267 6.87785 35.7256 6.05011 35.297C4.40483 36.2201 6.1311 38.8135 3.78649 39.4297C5.36789 40.1107 6.49822 39.9025 8.69072 39.4297C8.69072 39.9307 8.69072 40.4318 8.69072 40.9325C6.02937 41.2184 5.34221 40.8364 3.03217 41.6841C4.36433 43.4859 2.86886 43.117 2.65484 45.0655C2.91627 45.8069 4.75976 44.9733 4.91813 45.817C5.11009 47.3857 2.94228 46.6043 3.03217 48.0714C4.73408 47.8884 3.84543 49.9641 4.91813 51.8286C6.01455 51.0157 4.05516 49.4916 5.67278 49.1984C7.754 49.7106 4.89805 52.993 6.80476 53.3311C6.78434 52.6848 7.09483 52.3677 7.55908 52.204C8.44938 52.466 8.08226 55.912 8.69105 55.2097C8.74209 54.0082 8.31899 52.3346 9.8227 52.5798C10.4575 55.8225 8.73287 57.0886 10.5773 58.9668C10.6053 56.7482 9.67223 53.6921 11.709 52.2044C13.0221 55.873 10.3189 61.9223 13.9723 63.1001C14.0233 59.5738 11.5724 53.01 14.7269 51.0773C14.7269 52.0791 14.7269 53.0812 14.7269 54.083C16.3495 52.4218 17.1331 54.2043 18.4995 54.8345C18.0909 52.5293 19.2265 49.025 20.7631 48.4475C20.8748 49.9057 20.8748 50.3704 20.7631 51.8289C22.0403 51.723 22.9293 51.2308 24.5357 51.4531C25.2835 50.8199 25.5693 49.7273 26.0447 48.8233C27.792 49.9484 30.2878 49.302 32.0809 48.4475C32.0799 48.8239 32.3868 48.8945 32.4582 49.1991C31.835 51.2905 30.1535 50.0985 29.44 52.2047C25.9439 50.4015 23.9095 53.9331 20.7635 53.3317C19.8751 54.9362 21.772 58.0884 20.7635 59.7187C17.0844 60.0234 17.4084 56.6574 17.7455 54.8345C15.1895 54.7037 16.9968 59.3567 16.9909 61.2219C19.7474 60.3972 18.2295 65.9559 20.7635 66.4819C20.9551 66.3019 17.846 61.8134 20.7635 61.2219C21.2099 62.405 21.1875 64.0553 21.8951 64.9791C22.3926 63.3228 20.6416 61.7495 22.2724 61.2219C22.9573 63.796 23.6925 66.3199 24.5361 68.7363C25.7836 69.1219 27.4183 69.1216 28.3086 69.8633C26.5824 68.953 27.1793 65.7287 25.6677 64.6036C25.1847 66.3146 26.9903 68.1031 25.2904 68.7366C24.0787 65.5519 23.1901 59.6456 24.9131 56.338C26.3631 57.3883 24.3797 59.7906 26.0447 60.8468C26.5185 59.6902 26.4553 57.9992 27.5537 57.4654C28.5767 59.2551 26.2264 63.9084 28.6856 64.9797C28.8486 62.7627 28.0844 59.6223 30.1946 59.3439C30.7537 63.0533 30.7711 67.5391 32.0809 69.4881C32.3242 67.8519 31.589 65.2411 32.4582 64.2285C33.9958 65.3266 32.7213 69.2265 34.7218 69.8639C34.4189 68.8943 33.8747 66.2241 34.7218 65.3558C36.2795 66.6845 35.2938 70.547 37.3625 71.3667C37.158 68.854 36.1544 65.5637 37.3625 64.6043C39.1961 66.4097 37.1007 72.1285 40.7577 72.1183C40.4535 69.9026 38.5517 63.5756 40.3804 61.2229C41.9081 63.392 40.0936 68.589 42.2667 71.3667C43.1758 71.5209 43.0865 70.6808 44.153 70.991C43.9242 68.7081 42.2996 65.8326 43.3987 63.4769C45.5066 64.1317 43.5939 68.793 45.6623 69.4881C46.71 68.1529 44.122 65.6395 45.6623 63.8524C49.0269 63.4628 45.7367 67.401 48.3026 67.6096C48.455 65.5595 48.0843 62.1466 49.8115 60.4706C51.3554 61.1881 48.966 64.2593 50.9435 64.9794C52.3731 63.3979 51.1733 59.197 53.2071 58.2166C53.7596 58.5432 54.4027 58.7793 54.3385 59.7194C53.9888 60.9986 53.2822 61.9229 53.5845 63.8524C55.6094 63.7399 53.9615 59.9699 55.8481 59.7194C56.5612 59.6351 56.6801 60.1431 57.3574 60.0952C57.9731 56.1242 62.6735 58.5274 63.3929 54.8352C65.0731 54.5827 65.3418 53.761 67.1658 54.4594C67.3199 53.554 66.4764 53.6426 66.7882 52.5808C68.3838 51.8515 71.7731 51.1738 72.8247 48.8236C71.6585 47.773 71.8083 50.3097 70.1838 49.9506C67.6485 49.0135 65.8646 47.3287 66.4115 44.3149C69.3439 44.4854 66.7777 47.9015 69.4295 48.0724C70.3962 46.924 67.9547 46.8945 69.0521 45.4419C69.927 45.3222 70.5005 45.5026 70.9381 45.8177C70.8127 44.3109 68.39 43.2849 70.1838 42.0605C72.2219 42.1602 71.0379 45.4681 73.2017 45.4419C73.2073 43.7787 71.1419 42.6999 72.4474 40.9335C71.8113 39.8733 70.7142 42.3773 69.8071 40.9335C69.8071 40.5577 69.8071 40.1819 69.8071 39.8064C71.6839 40.2986 71.4116 38.6496 72.8247 38.6791C73.339 39.4182 73.1849 40.8253 73.579 41.6847C74.6356 42.1169 75.5404 42.1169 76.597 41.6847C76.6023 42.4314 77.6262 42.1625 77.3513 43.1875C77.2608 43.8486 76.702 44.044 75.8427 43.9391C76.0257 45.6944 76.4778 46.5706 75.4653 47.6963C77.8666 48.5846 76.276 45.497 77.7286 45.4419C78.6179 45.4337 78.8395 46.0895 79.9923 45.8177C81.6978 44.2667 80.1773 41.384 79.9923 39.4303C79.0536 39.4716 78.8247 40.1344 78.1063 39.4303C78.2113 40.4121 78.2334 41.3106 76.9743 40.9331C77.0971 39.0519 79.042 38.9847 79.2369 37.1756ZM79.9913 34.5458C80.8723 32.9708 80.281 33.3843 79.9913 31.5398C78.9251 31.8504 79.0137 31.0103 78.1053 31.1641C78.7223 32.3029 79.0045 33.7752 79.9913 34.5458ZM113.189 63.8511C108.973 64.0363 113.41 56.8728 111.303 54.4584C110.654 54.3102 110.336 55.0159 110.171 54.4584C108.355 52.0086 106.716 49.3834 102.626 49.1984C97.7018 44.2168 89.8883 44.3477 81.8772 46.1925C78.4915 47.9589 75.1328 52.8956 71.3144 51.8286C69.9033 53.4576 71.8449 54.0623 70.9368 55.9612C64.6089 56.296 61.6015 59.9384 57.7331 62.7244C57.5144 63.9439 57.9902 64.4718 58.1104 65.3545C51.1957 65.4814 48.8231 70.1315 44.9063 73.2443C44.7252 75.9444 44.047 78.1489 42.2657 79.2556C42.8574 83.5053 40.7304 88.6312 43.02 92.0299C43.7292 90.8577 43.9814 89.2303 45.661 89.024C47.4202 90.4799 46.1153 92.6795 47.1699 94.6598C46.6879 95.1815 45.3887 94.8893 44.9063 95.411C44.7256 96.5928 45.4437 96.8797 45.661 97.6654C46.9984 97.7448 46.4057 95.9032 47.9246 96.1626C47.9246 97.4149 47.9246 98.6675 47.9246 99.9201C49.8688 98.7255 48.7408 95.4392 48.6792 93.9085C49.4484 93.1537 49.4187 94.0748 50.1879 94.2843C50.3943 93.7384 49.7473 92.3421 50.5652 92.4054C51.8822 93.5544 52.8015 96.8315 52.0742 98.7927C53.7764 99.3522 55.0463 100.341 56.2241 101.423C56.6584 100.603 56.2992 98.9924 57.3561 98.7927C58.5269 101.475 56.6396 103.062 56.9784 104.804C59.8897 104.572 58.2556 99.8135 59.9963 98.4173C61.0602 100.293 58.9895 103.736 59.6197 105.18C62.8832 102.413 61.3272 96.865 60.7513 92.4054C61.2706 92.4218 61.5797 92.2287 61.8833 92.0299C64.1726 92.8776 64.7129 92.1024 66.7872 92.0299C67.4885 93.1029 68.662 96.7977 67.1649 97.6654C65.9387 97.4352 64.7883 97.1444 64.1469 97.2899C65.1923 99.6243 64.5568 102.464 63.3919 104.429C61.4497 103.251 64.248 101.38 63.0146 100.296C62.5273 101.814 61.9837 103.276 61.883 105.18C63.2569 105.296 64.3379 105.12 65.2779 104.804C66.2709 102.912 66.2588 100.02 68.2962 99.1682C68.5724 101.823 66.588 102.226 66.7869 104.804C70.2872 102.612 69.7716 96.5915 69.0508 92.0303C71.8564 93.8695 70.4692 100.402 70.5601 102.926C72.8083 99.2941 71.299 95.6291 71.6918 92.0303C72.9508 92.714 72.9982 93.9925 74.3327 92.7818C75.9464 95.0805 74.7011 98.978 75.4644 101.423C77.3263 98.5917 75.5193 95.1939 76.5963 92.7818C78.5208 93.7049 77.6628 98.2537 77.3507 100.296C81.0518 98.8977 78.4504 93.3399 79.6143 89.7762C80.2632 89.7559 80.5816 90.0651 80.7459 90.5275C78.455 93.9089 83.1304 96.341 81.1232 99.5443C84.7753 97.4487 85.772 89.4532 83.3869 85.6426C82.7379 87.4169 83.7425 90.0579 83.0095 92.0299C80.849 91.9273 82.3023 88.2259 81.8779 86.3942C81.1055 85.3954 79.9119 83.2846 80.3689 82.2612C81.7785 81.8598 81.4443 83.1944 82.6325 83.0128C82.5897 81.6779 81.2372 81.647 81.5002 80.0068C86.5918 83.1174 86.3778 91.1574 84.8962 96.538C87.062 96.4413 85.6505 92.7815 87.1591 92.0299C88.9473 93.5826 86.7041 96.8912 86.0278 98.4173C89.9321 98.5485 90.8066 95.6625 91.686 92.7815C89.5525 93.2862 89.7056 96.0685 87.9141 96.9138C90.2462 90.2914 86.0927 83.1728 84.5188 78.504C86.4637 78.8208 86.1924 81.3457 87.9141 81.8854C87.9849 82.6527 89.1445 80.5046 89.4227 82.2612C89.3661 82.9564 88.1459 82.4921 87.9141 83.0128C88.2457 83.9345 88.2535 85.1793 89.4227 85.2671C88.7122 83.9601 89.6098 83.5971 90.5547 83.0128C89.3124 80.6151 88.703 75.5941 88.6684 73.2443C91.6294 77.4337 91.2929 84.9074 93.9496 89.3998C93.4959 91.3348 91.9942 94.2056 92.4403 95.7871C99.4712 90.3222 89.8475 79.7009 92.818 75.8745C93.3389 76.6084 93.3461 77.8528 94.327 78.1289C92.9227 81.5493 96.529 85.4452 96.5906 90.5275C97.8315 87.2956 97.0499 84.3064 96.9676 81.8857C98.6613 82.2032 98.0083 84.8569 98.4772 86.3945C101.088 86.3332 98.4568 82.3291 99.6089 81.51C101.522 83.9168 101.112 86.3565 100.363 89.4001C104.716 87.1411 99.9032 80.6895 101.495 78.5043C102.072 81.4362 103.873 83.1502 103.381 87.1461C106.258 85.5521 101.75 79.5838 103.759 77.7531C105.314 79.3353 105.032 82.7468 106.022 84.8917C107.964 82.0917 104.136 78.5352 106.022 77.0015C107.247 77.2849 106.605 79.4268 107.908 79.6317C108.121 77.9171 107.24 77.2917 107.531 75.4987C108.189 75.4705 108.704 75.583 109.04 75.8745C109.035 74.7183 107.403 73.0269 109.04 72.4931C109.543 72.437 110.179 74.0208 110.549 72.8689C109.154 71.3274 111.685 71.6507 112.059 71.3658C111.546 70.4981 110.974 69.6908 110.926 68.3601C109.5 67.8165 110.203 69.3924 109.04 69.1117C109.685 67.8253 108.366 66.2582 110.926 66.4815C110.632 68.1529 111.282 68.8825 112.813 68.7359C112.798 66.7472 110.752 66.7806 110.549 64.9787C111.229 64.0593 113.273 65.9917 113.189 63.8511ZM72.8241 48.0714C73.7539 48.1206 74.6412 48.1278 75.0877 47.6956C74.8322 46.8221 74.4088 46.1177 73.2011 46.1928C73.5129 47.2543 72.669 47.166 72.8241 48.0714ZM49.4342 101.422C50.7749 101.465 50.8059 102.812 52.4522 102.549C51.7989 101.187 50.8148 98.1815 50.5659 97.6647C50.8069 99.5335 49.4194 99.7794 49.4342 101.422Z" fill="#4B3900"/>
<path fill-rule="evenodd" clip-rule="evenodd" d="M110.548 64.9789C110.751 66.7807 112.797 66.7473 112.812 68.736C111.281 68.8826 110.631 68.153 110.925 66.4817C108.365 66.258 109.684 67.8254 109.039 69.1118C110.202 69.3925 109.499 67.8166 110.925 68.3603C110.973 69.6909 111.545 70.4986 112.058 71.3659C111.684 71.6508 109.153 71.3275 110.548 72.869C110.178 74.021 109.542 72.4372 109.039 72.4932C107.402 73.0274 109.034 74.7184 109.039 75.8746C108.703 75.5828 108.187 75.4706 107.53 75.4988C107.239 77.2922 108.12 77.9172 107.907 79.6318C106.604 79.4269 107.246 77.285 106.021 77.0017C104.135 78.5353 107.963 82.0915 106.021 84.8918C105.031 82.7473 105.313 79.3357 103.758 77.7532C101.749 79.5836 106.257 85.5519 103.38 87.1462C103.872 83.1503 102.071 81.4366 101.494 78.5045C99.9021 80.6893 104.715 87.1413 100.362 89.4002C101.111 86.3569 101.521 83.9169 99.6078 81.5101C98.456 82.3292 101.086 86.3336 98.4761 86.3946C98.0073 84.8571 98.6602 82.2033 96.9665 81.8859C97.0488 84.3065 97.8305 87.2954 96.5895 90.5276C96.5276 85.4453 92.9216 81.5494 94.3259 78.129C93.345 77.8529 93.3378 76.6085 92.8169 75.8746C89.8464 79.701 99.4701 90.3223 92.4393 95.7873C91.9931 94.2061 93.4948 91.3352 93.9486 89.3999C91.2918 84.9079 91.6283 77.4342 88.6673 73.2445C88.7016 75.5943 89.311 80.6152 90.5536 83.0129C89.609 83.5972 88.7111 83.9602 89.4216 85.2673C88.2525 85.1794 88.2446 83.9346 87.913 83.0129C88.1448 82.4922 89.365 82.9565 89.4216 82.2613C89.1434 80.505 87.9838 82.6528 87.913 81.8855C86.1913 81.3458 86.463 78.8206 84.5177 78.5041C86.0912 83.1726 90.2451 90.2912 87.913 96.9139C89.7045 96.0689 89.5514 93.2866 91.6849 92.7816C90.8055 95.6623 89.9313 98.5486 86.0267 98.4174C86.703 96.8916 88.9459 93.5831 87.158 92.0301C85.6494 92.7816 87.0609 96.4414 84.8951 96.5382C86.3767 91.1575 86.5904 83.1175 81.4991 80.0069C81.2361 81.6471 82.589 81.678 82.6315 83.0129C81.4432 83.1946 81.7774 81.86 80.3678 82.2613C79.9108 83.2847 81.1044 85.3958 81.8768 86.3943C82.3009 88.226 80.8479 91.9271 83.0084 92.0301C83.7417 90.0577 82.7371 87.417 83.3858 85.6427C85.7709 89.453 84.7742 97.4488 81.1222 99.5444C83.1293 96.3408 78.4539 93.909 80.7448 90.5276C80.5805 90.0652 80.2621 89.756 79.6132 89.7763C78.4493 93.3401 81.0507 98.8978 77.3496 100.296C77.6617 98.2535 78.5197 93.705 76.5952 92.782C75.5182 95.1937 77.3255 98.5919 75.4633 101.423C74.7004 98.9781 75.9456 95.0806 74.3316 92.782C72.9972 93.9926 72.9501 92.7141 71.6907 92.0304C71.2982 95.6292 72.8075 99.2939 70.559 102.926C70.4682 100.403 71.8556 93.87 69.0497 92.0304C69.7705 96.5916 70.2861 102.612 66.7858 104.804C66.5869 102.227 68.5713 101.823 68.2951 99.1683C66.2577 100.02 66.2698 102.912 65.2768 104.804C64.3371 105.12 63.2559 105.296 61.8819 105.18C61.9826 103.276 62.5259 101.814 63.0135 100.296C64.2466 101.38 61.4483 103.251 63.3909 104.429C64.5558 102.464 65.1912 99.6248 64.1458 97.2901C64.7872 97.1445 65.9376 97.435 67.1638 97.6655C68.6609 96.7979 67.4871 93.1033 66.7861 92.0301C64.7118 92.1025 64.1718 92.8777 61.8822 92.0301C61.5786 92.2285 61.2698 92.4216 60.7502 92.4055C61.3261 96.8651 62.8825 102.413 59.6186 105.18C58.9884 103.736 61.0591 100.293 59.9953 98.4174C58.2545 99.8137 59.8886 104.572 56.9773 104.804C56.6388 103.063 58.5258 101.475 57.355 98.7929C56.2977 98.9926 56.6573 100.603 56.223 101.423C55.0456 100.341 53.7753 99.3523 52.0731 98.7929C52.8004 96.832 51.8811 93.5545 50.5641 92.4055C49.7466 92.3426 50.3936 93.7385 50.1868 94.2845C49.4177 94.0746 49.4473 93.1538 48.6782 93.9087C48.7397 95.4393 49.8681 98.7256 47.9235 99.9202C47.9235 98.6676 47.9235 97.415 47.9235 96.1627C46.4047 95.9033 46.9973 97.7449 45.6599 97.6655C45.4422 96.8798 44.7245 96.5929 44.9052 95.4111C45.3876 94.8894 46.6868 95.1816 47.1689 94.6599C46.1146 92.68 47.4194 90.4804 45.6599 89.0241C43.98 89.2304 43.7278 90.8578 43.0189 92.0301C40.7293 88.6313 42.8563 83.5054 42.2646 79.2557C44.0459 78.149 44.7241 75.9445 44.9052 73.2445C48.822 70.132 51.1946 65.4815 58.1093 65.3546C57.9891 64.4722 57.513 63.944 57.732 62.7245C61.6004 59.9389 64.6078 56.2961 70.9357 55.9613C71.8441 54.0621 69.9022 53.4578 71.3134 51.8287C75.1317 52.896 78.4904 47.959 81.8761 46.1926C89.8872 44.3478 97.7007 44.2169 102.625 49.1985C106.715 49.3835 108.354 52.0084 110.17 54.4585C110.335 55.016 110.653 54.3103 111.302 54.4585C113.408 56.8729 108.972 64.0364 113.188 63.8512C113.272 65.9924 111.228 64.0601 110.548 64.9789ZM109.039 63.1006C108.147 64.0332 108.889 65.4576 110.548 64.9792C110.335 64.064 110.225 63.0462 109.039 63.1006ZM96.2125 80.0069C97.1782 78.7711 95.5405 77.6178 95.4582 76.2501C94.8013 76.2219 94.2854 76.3344 93.9489 76.6259C95.2544 78.0405 94.1642 79.5531 96.2125 80.0069ZM92.0629 47.3206C92.1765 46.3306 91.5404 46.0873 90.5536 46.1933C90.5793 47.2052 91.4163 47.999 92.0629 47.3206ZM92.0629 48.8234C92.9799 50.3285 94.2439 48.4263 95.0809 47.6961C94.4862 47.662 94.7852 46.7376 93.9489 46.9445C93.9736 48.222 92.0112 47.52 92.0629 48.8234ZM80.3682 51.8294C81.994 53.3404 83.8171 54.6563 86.404 55.2104C86.8522 54.1313 87.1946 53.2158 86.7814 52.2048C85.0814 51.8192 81.4376 49.3445 80.3682 51.8294ZM109.039 56.3375C108.557 56.3168 108.517 55.8558 107.907 55.9617C108.13 57.1169 109.769 56.8624 110.548 57.4645C110.548 56.8385 110.548 56.2122 110.548 55.5862C110.171 55.5862 109.794 55.5862 109.416 55.5862C109.332 55.8777 109.406 56.327 109.039 56.3375ZM109.039 59.7189C108.585 59.2945 108.355 58.6466 107.153 58.9673C108.214 59.9143 108.345 61.788 110.171 61.9732C110.02 59.8927 109.902 59.7903 110.548 58.2161C110.038 58.098 109.827 57.6812 109.039 57.8403C108.548 58.7732 110.146 59.3995 109.039 59.7189ZM107.153 62.7248C108.605 63.0206 108.605 60.9256 107.153 61.222C107.153 61.7227 107.153 62.2238 107.153 62.7248ZM100.74 70.9901C101.514 71.3465 102.535 71.4564 102.626 72.4929C102.042 73.7898 100.173 73.8072 100.362 75.8743C103.449 74.8148 105.875 73.0985 106.399 69.487C104.98 67.047 100.339 66.8742 100.74 70.9901ZM96.5898 76.6262C96.415 77.8024 96.9174 78.3031 98.0985 78.129C97.7014 75.9117 98.7464 76.559 99.6078 76.2504C99.6361 75.5959 99.5235 75.0824 99.2301 74.7476C97.7445 74.7702 98.22 76.7462 96.5898 76.6262ZM82.6318 77.3774C83.0091 77.3774 83.3861 77.3774 83.7631 77.3774C83.8691 76.5213 83.6729 75.9651 83.0088 75.8746C82.8899 76.3826 82.4721 76.5921 82.6318 77.3774ZM47.5472 84.516C49.1964 85.0069 49.4437 85.1876 51.3194 84.8915C51.7501 84.0674 52.293 83.3565 52.0741 81.8859C50.4844 79.1445 45.7037 80.8366 47.5472 84.516ZM60.7512 87.8971C61.9082 89.2494 63.3076 90.3613 64.9011 91.2785C70.4063 87.7508 60.873 79.1721 60.7512 87.8971ZM72.4457 87.8971C72.9488 87.8971 73.4519 87.8971 73.9546 87.8971C74.2839 86.693 73.3738 86.7222 72.823 86.3946C72.7041 86.9022 72.286 87.1121 72.4457 87.8971ZM56.224 89.3999C56.6016 89.3999 56.9783 89.3999 57.356 89.3999C57.461 88.5437 57.2651 87.9879 56.6016 87.8971C56.4825 88.4054 56.0643 88.6146 56.224 89.3999ZM53.9607 89.776C55.6274 91.0595 56.0818 94.4802 55.847 96.5382C57.5785 96.4411 57.6701 96.1388 59.2423 96.5382C60.8651 93.4755 60.1787 89.1166 56.2243 90.9027C55.6988 90.4243 56.0607 89.0625 55.0927 89.0241C54.9936 89.5527 54.2646 89.4527 53.9607 89.776ZM53.9607 97.6655C56.2615 96.6782 54.7022 90.9854 52.4514 90.903C52.8827 93.4729 53.8092 95.8384 53.9607 97.6655Z" fill="#F6E7A1"/>
<path fill-rule="evenodd" clip-rule="evenodd" d="M99.2301 74.7473C99.5238 75.0821 99.6361 75.5956 99.6078 76.2501C98.7464 76.5586 97.7014 75.9117 98.0985 78.1287C96.9174 78.3028 96.415 77.8021 96.5898 76.6259C98.22 76.7462 97.7445 74.7702 99.2301 74.7473Z" fill="#4B3900"/>
<path fill-rule="evenodd" clip-rule="evenodd" d="M34.7211 56.3375C35.6061 56.4575 36.1369 56.9313 37.3617 56.7132C36.8774 59.5369 38.0528 62.4176 37.739 63.8518C34.7277 63.3442 32.9649 61.5932 31.3255 59.7189C33.4044 60.0769 33.1868 57.4524 34.7211 56.3375Z" fill="#4B3900"/>
</g>
<path d="M47.6968 102.471C46.2725 101.382 45.0725 100.098 44.3823 98.9244C43.7145 97.7888 43.0066 95.4771 43.2707 95.2947C43.3788 95.22 43.8087 95.2265 44.2259 95.3092C45.8848 95.638 47.592 94.8388 48.0881 93.5011C48.2503 93.0637 48.4567 92.7058 48.5467 92.7058C48.6367 92.7058 49.0122 92.9814 49.3812 93.3183C49.7502 93.6552 50.2415 94.0733 50.4729 94.2474C51.4885 95.0116 50.5246 96.2321 48.3903 96.8843C47.3528 97.2013 47.1487 97.338 47.0246 97.7989C46.7645 98.7647 47.4366 100.773 48.5884 102.471C48.8497 102.856 49.0101 103.208 48.9451 103.253C48.88 103.298 48.3183 102.946 47.6969 102.471L47.6968 102.471Z" fill="black"/>
<path d="M57.194 102.765C54.789 102.184 52.2979 101.129 50.4337 99.9005C49.5176 99.2968 48.768 98.7199 48.768 98.6185C48.768 98.5143 49.1538 98.434 49.6544 98.4338C50.9004 98.4338 52.1189 97.9644 52.6236 97.2908C52.9568 96.8461 53.0303 96.456 52.9545 95.5349C52.901 94.8836 52.903 94.3507 52.959 94.3507C53.0151 94.3507 53.5044 94.5988 54.0463 94.9021C54.5881 95.2053 55.3756 95.5741 55.7962 95.7217C57.4109 96.2882 57.1639 97.5195 55.0349 99.5173C54.5821 99.9422 55.688 101.033 57.8607 102.305C58.5054 102.683 58.9805 103.028 58.9164 103.072C58.8523 103.117 58.0772 102.978 57.1939 102.765L57.194 102.765Z" fill="black"/>
<path d="M41.7334 99.2045C39.9798 97.1963 39.3135 95.6362 39.3135 93.5385C39.3135 91.7483 39.3595 91.6936 40.5498 92.0618C41.6009 92.387 41.9917 92.3497 42.7993 91.8474L43.3306 91.517L44.4539 91.8589C45.0717 92.047 45.7633 92.2411 45.9908 92.2902C46.5799 92.4175 46.509 92.6229 45.64 93.3068C44.7163 94.0337 43.7016 94.3498 42.2916 94.3498C41.4626 94.3498 41.2058 94.4164 41.0939 94.66C40.8931 95.0972 41.3521 96.9642 42.0558 98.5725C42.3841 99.3229 42.6135 99.964 42.5655 99.9971C42.5175 100.03 42.1431 99.6736 41.7334 99.2045V99.2045Z" fill="black"/>
<path d="M84.0662 99.4168C81.3317 99.0193 78.9756 97.5341 77.8444 95.495C77.67 95.1806 77.4441 94.8578 77.3425 94.7777C77.2391 94.6961 76.3459 94.9225 75.3123 95.2922C72.262 96.3833 70.6204 96.6677 66.841 96.7599C63.9443 96.8305 63.2558 96.7944 61.4046 96.4749C57.8918 95.8687 54.9339 94.6634 52.194 92.7217L50.7758 91.7166L51.4849 91.3206C52.3926 90.8138 54.7141 90.1701 56.1838 90.0178L57.3268 89.8993L57.1251 90.4513C56.82 91.2861 56.9323 92.336 57.3769 92.805C58.2744 93.7516 60.3064 94.1386 61.7219 93.6328C63.6043 92.9601 64.264 90.0974 63.1785 87.3119C63.0404 86.9575 62.9802 86.6084 63.0448 86.5362C63.1094 86.464 63.8853 86.4686 64.769 86.5466C67.6832 86.8036 71.0866 86.4032 73.6814 85.4981C75.734 84.782 78.0943 83.1018 78.7473 81.8913C79.3459 80.7823 79.4272 79.105 78.9228 78.2707C77.6958 76.2416 73.2009 77.1594 72.1672 79.6502C71.9897 80.0779 72.0384 80.3449 72.3954 80.9027C72.8275 81.5776 72.8288 81.6116 72.4243 81.6116C71.871 81.6116 70.9029 80.9845 70.3787 80.2865C70.1473 79.9784 69.9151 79.2207 69.8546 78.5764C69.7262 77.209 70.1822 76.329 71.5689 75.2684C72.3851 74.6442 74.9201 73.6083 75.6318 73.6083C76.1698 73.6083 75.9907 72.7387 75.2383 71.6983C73.9672 69.9405 71.5664 68.6074 67.794 67.5643C66.754 67.2768 65.6904 66.9805 65.4304 66.906C64.5806 66.6624 68.8948 66.74 70.4706 66.9967C74.7887 67.7002 77.406 69.4127 79.0341 72.6C79.6435 73.7931 79.7245 73.8668 80.8825 74.2802C85.0997 75.786 88.9487 79.4647 88.9487 81.9894C88.9487 82.9823 88.215 84.3554 86.7088 86.1817C84.3438 89.0493 84.1178 89.4931 84.1306 91.2484C84.1429 92.9209 84.6539 94.568 85.4324 95.4431C85.7316 95.7796 86.2757 96.0635 86.975 96.248C89.8038 96.9946 92.356 95.305 91.5663 93.2084C91.1735 92.1652 90.1846 91.5244 88.9009 91.4815C87.663 91.44 87.5716 91.1481 88.6589 90.7093C89.8078 90.2456 90.947 90.4463 92.1715 91.328C94.0145 92.655 94.3981 94.634 93.1692 96.4751C92.3145 97.7555 91.4909 98.3551 89.8204 98.9132C88.1968 99.4556 85.7847 99.6667 84.0663 99.4169L84.0662 99.4168Z" fill="black"/>
<path d="M36.491 94.5904C36.0603 93.3843 35.8992 89.6631 36.222 88.3819C36.512 87.2312 37.3466 85.5224 37.615 85.5297C37.7031 85.5322 38.0412 85.8333 38.3662 86.1989C39.3087 87.2592 40.5491 87.5639 41.9234 87.0728C42.307 86.9358 42.6257 86.8439 42.6316 86.8687C42.8094 87.6051 42.7392 89.7184 42.5339 89.8103C42.028 90.0371 40.6036 89.9349 39.7226 89.6087C39.2375 89.429 38.7383 89.282 38.6134 89.282C38.212 89.282 37.4259 91.4739 37.1709 93.3039C36.8585 95.5455 36.8427 95.5756 36.4909 94.5903L36.491 94.5904Z" fill="black"/>
<path d="M59.0353 92.962C58.5998 92.7343 58.6136 92.7219 59.308 92.717C60.4838 92.7086 60.9151 92.2395 60.7518 91.1466C60.5177 89.5787 58.8924 88.4106 56.9447 88.4106C56.1229 88.4106 55.4176 88.6163 53.2334 89.4928C51.7501 90.088 50.072 90.6882 49.504 90.8267C47.2003 91.3883 45.3242 90.9759 44.5042 89.7275C43.515 88.2218 44.064 86.9363 46.4106 85.2641C47.9772 84.1476 48.9872 83.0188 48.9985 82.3713C49.0013 82.2088 49.11 82.1213 49.24 82.1768C49.37 82.2323 49.4757 82.6593 49.4749 83.1256C49.4749 83.8054 49.2629 84.2604 48.4113 85.4211C47.3165 86.9132 47.1425 87.4404 47.6328 87.7791C48.3526 88.2766 50.2819 87.8435 53.3908 86.4867C54.8565 85.8471 55.2026 85.7664 56.7053 85.7139C58.6498 85.6461 59.8573 85.9723 60.9337 86.8563C61.7862 87.5564 61.9522 87.8954 62.1386 89.3172C62.4993 92.0676 60.9055 93.9395 59.0354 92.962L59.0353 92.962Z" fill="black"/>
<path d="M129.249 91.0395C127.06 90.2347 124.386 88.27 121.558 85.3874C117.903 81.6626 116.312 80.6401 112.536 79.5882C110.518 79.0259 103.915 77.8494 102.777 77.8494C101.96 77.8494 102.054 78.366 102.896 78.5018C103.343 78.5739 103.543 78.7541 103.722 79.244C104.031 80.0884 104.244 80.2994 104.792 80.2994C105.039 80.2994 105.573 80.523 105.978 80.7963C106.883 81.4081 107.389 81.3423 108.634 80.4507C109.537 79.8042 109.757 79.8377 109.673 80.6095C109.613 81.1658 110.045 81.1976 110.901 80.6999L111.64 80.2703L111.638 80.6523C111.635 81.1042 110.569 82.7494 110.279 82.7494C110.169 82.7494 109.685 82.9982 109.205 83.3022C108.454 83.7771 108.331 83.9557 108.329 84.5681C108.326 84.9784 108.081 85.645 107.749 86.1385C107.162 87.0096 106.677 87.2543 106.677 86.679C106.677 86.0734 106.147 86.1243 105.324 86.809C104.203 87.7415 103.784 87.7213 104.205 86.7551C104.551 85.9606 104.394 85.7611 103.566 85.9427C103.14 86.0361 103.088 86.0053 103.239 85.7491C104.128 84.2354 104.302 83.0975 103.668 82.9538C103.509 82.9176 103.109 83.0888 102.78 83.3343C102.45 83.5798 102.146 83.7507 102.104 83.7142C102.061 83.6776 101.893 83.1123 101.729 82.458C100.983 79.4788 98.3527 77.6266 93.3562 76.5615C91.723 76.2133 90.3674 76.1122 90.3676 76.3386C90.3677 76.4059 90.5366 77.0123 90.7428 77.6861C90.9816 78.4663 91.0646 79.2372 90.9713 79.8094C90.8186 80.7464 90.3777 81.7694 90.1265 81.7694C90.0462 81.7694 89.6902 81.0591 89.3353 80.1909C87.9712 76.8539 86.719 75.6225 82.0525 73.0298C81.6927 72.8298 81.6869 72.7286 81.9906 71.9402C82.4024 70.8711 82.4112 70.4797 82.043 69.6201C81.6223 68.6378 79.9724 67.6174 77.2588 66.6611C75.1161 65.906 72.3488 64.4468 72.6525 64.232C72.7243 64.1812 73.4156 64.3194 74.1889 64.5391C75.6852 64.9641 78.8426 65.1154 79.1457 64.7766C79.2291 64.6834 78.7205 64.1138 78.0155 63.5108C76.1642 61.9274 75.3668 61.0693 74.0775 59.2726C71.8975 56.235 71.856 55.4328 73.9837 57.4564C75.8286 59.2112 78.4845 60.9515 81.1923 62.1801C83.2653 63.1208 83.9856 63.3276 83.9856 62.9824C83.9856 62.8906 83.5455 62.2107 83.0076 61.4715C81.1261 58.8863 80.161 56.5908 79.8332 53.921C79.662 52.5269 79.903 52.3971 80.4396 53.5943C81.0245 54.8993 83.5007 58.263 84.961 59.7365C86.5917 61.3817 89.2954 63.3985 90.6039 63.9456C91.0589 64.1358 91.8182 64.2917 92.2911 64.292C93.4143 64.2929 97.1035 65.0351 98.1641 65.4737C99.6271 66.0788 101.039 66.9391 101.851 67.7197C102.614 68.4537 102.697 68.4854 104.326 68.6596C105.481 68.7832 106.691 69.0755 108.176 69.5898C110.456 70.3798 111.17 70.4636 112.961 70.1519C113.891 69.9901 114.079 70.0048 114.518 70.2744C115.372 70.7997 115.884 71.7988 115.888 72.9493C115.893 74.1581 115.639 74.9158 114.778 76.2568C114.169 77.2071 113.768 77.4554 113.768 76.8827C113.768 76.0461 113.195 75.8242 112.468 76.3793C111.848 76.8525 111.722 76.7933 111.555 75.9498C111.326 74.7978 110.594 74.1175 109.061 73.6324C108.335 73.4025 107.192 73.183 106.523 73.1446C105.431 73.082 105.274 73.1148 105.01 73.4612C104.545 74.0712 104.236 74.1131 103.691 73.6403C103.228 73.2393 103.133 73.2199 102.599 73.4176C102.102 73.6013 101.905 73.5949 101.291 73.3756C100.374 73.048 99.079 72.9674 98.9446 73.2296C98.713 73.6813 104.371 75.755 109.986 77.2766C114.313 78.4493 117.671 79.6363 119.072 80.4883C120.463 81.3343 121.755 82.6021 124.04 85.3625C126.831 88.7343 128.208 89.9467 130.668 91.198C131.724 91.7355 130.889 91.6419 129.25 91.0391L129.249 91.0395Z" fill="black"/>
<path d="M96.5722 67.5718C95.7443 67.0956 93.8121 66.5796 92.8575 66.5796C92.1583 66.5796 92.158 66.5739 92.9019 67.3972L93.4193 67.9699L95.3614 67.9811L97.3034 67.9923L96.5723 67.5717L96.5722 67.5718Z" fill="#FF0000"/>
<path d="M31.87 85.9647C31.4678 83.8293 32.3537 81.1871 34.2346 78.9123C36.4685 76.2105 40.1777 73.2017 48.3514 67.4612C51.0502 65.5657 53.2583 63.9585 53.2583 63.8894C53.2583 63.8204 52.9392 63.5128 52.5492 63.2059C51.9731 62.7524 51.8411 62.5034 51.8453 61.8776C51.8519 60.8857 52.4855 59.9351 53.584 59.2685C54.6163 58.6422 55.0379 58.5861 54.8001 59.1066C54.3684 60.052 54.3904 60.3299 54.9175 60.585C55.8631 61.0426 57.082 60.4255 57.5004 59.2773C57.8725 58.2562 57.4665 56.9061 56.6547 56.4648C55.9677 56.0914 55.665 56.1427 54.1753 56.885C51.9635 57.9872 50.1559 60.1725 49.5005 62.5365C48.6793 65.4991 49.1421 64.9581 45.0349 67.7554C40.2511 71.0134 38.8696 71.8804 38.6755 71.7463C38.4127 71.5646 39.26 66.9475 39.9234 64.9462C41.5121 60.1533 45.1995 54.1577 50.0693 48.4495C53.571 44.3446 53.7637 44.0791 54.0353 42.9834C54.392 41.5442 54.0109 40.2375 53.0384 39.5655C51.691 38.6344 49.1429 39.0834 48.5336 40.3593C48.3398 40.7649 48.3366 41.0118 48.522 41.2511C48.9649 41.8229 49.5242 41.921 50.9057 41.6692C51.6026 41.5421 52.2284 41.4766 52.2964 41.5236C52.5896 41.7262 51.2673 44.5822 50.1863 46.0812C48.8905 47.8782 46.9616 49.7216 42.9037 53.0414C36.1111 58.5983 33.6763 62.3213 33.0355 68.1312C32.8405 69.9 32.6177 69.652 32.2063 67.208C31.8417 65.0417 32.0446 62.1486 32.6789 60.4705C33.4088 58.5389 35.2124 56.2 38.3591 53.1045C42.3759 49.153 44.4339 46.4998 45.3335 44.1129C45.7957 42.8867 45.7891 41.7329 45.3089 39.7929C44.8209 37.8214 44.7689 34.9554 45.1968 33.6223C45.3779 33.0582 45.6026 32.564 45.696 32.5241C45.7895 32.4842 46.8645 32.563 48.085 32.6993C58.8423 33.9008 65.0363 36.8122 68.8739 42.4711C69.3742 43.2088 70.692 45.6688 71.8024 47.9378C73.8032 52.0262 74.7387 53.5946 76.1867 55.2882C76.8765 56.095 76.8922 56.1437 76.3838 55.8985C74.4561 54.9691 71.4956 51.8771 67.6464 46.7736C64.4432 42.5264 62.487 40.4325 60.3891 39.0053C57.7451 37.2065 54.5759 36.2572 50.6587 36.0904C48.665 36.0056 48.3503 36.0304 47.8519 36.3114C47.2507 36.6503 47.0813 37.4542 47.5673 37.6618C47.7195 37.7268 48.7761 37.79 49.9153 37.8022C54.4537 37.8509 58.202 39.3059 61.1981 42.1822C61.7715 42.7326 62.239 43.3573 62.237 43.5705C62.2292 44.4341 60.5627 47.6197 58.7117 50.3098C58.0386 51.2879 57.5383 52.179 57.5999 52.29C57.6616 52.401 58.1023 52.5424 58.5794 52.6043C59.6259 52.74 61.3529 53.788 62.0832 54.7307C62.5192 55.2934 62.5951 55.6578 62.5951 57.1881C62.5951 58.8327 62.534 59.0818 61.8729 60.1312C61.4756 60.7617 60.6883 61.754 60.1232 62.3362C58.8253 63.6736 54.0191 66.991 49.1224 69.9296C44.7303 72.5653 39.6369 76.0336 38.0859 77.4452C35.5308 79.7702 33.6184 82.4722 32.8109 84.8982C32.1162 86.9851 32.072 87.0353 31.8705 85.9655L31.87 85.9647Z" fill="black"/>
<path d="M50.7839 83.7663C50.897 82.7667 50.855 82.006 50.6539 81.4159C50.3164 80.425 49.5736 79.3184 49.2462 79.3184C49.1254 79.3184 48.5936 79.8935 48.0644 80.5964C46.2312 83.0314 43.5974 84.8119 42.7365 84.1979C42.4897 84.0219 41.2519 81.703 40.1318 79.3183C39.8041 78.6208 49.6194 70.4984 50.7901 70.4984C51.8071 70.4984 56.8016 74.3486 58.2082 76.217C59.1284 77.4392 59.1968 77.6302 59.5066 79.842C59.6864 81.1261 59.9468 82.3789 60.0851 82.6258C60.2399 82.9022 60.2491 83.075 60.1091 83.075C59.6144 83.075 58.6108 81.6305 57.5907 79.4502C56.6202 77.3758 56.4158 77.0869 55.4202 76.3824C54.6665 75.8491 53.8823 75.493 52.9251 75.2493C51.0726 74.7778 50.8964 74.9074 51.4386 76.3418C52.2947 78.6066 54.6728 81.3473 56.9721 82.719C57.6604 83.1296 58.1431 83.5113 58.045 83.5672C57.9468 83.6231 57.1752 83.762 56.3302 83.8758C55.077 84.0447 52.8937 84.5598 50.9326 85.1493C50.6755 85.2266 50.6479 84.9694 50.7841 83.7664L50.7839 83.7663Z" fill="black"/>
<path d="M58.4657 72.3476C58.4616 72.1514 58.6075 71.4899 58.7898 70.8776C59.6037 68.1452 59.4713 66.5795 58.4266 66.5795C57.8829 66.5795 56.7166 67.4063 56.3149 68.0764C56.1622 68.3311 55.9609 68.5395 55.8675 68.5395C55.6854 68.5395 55.1492 67.8061 55.1492 67.5571C55.1492 67.2542 61.058 63.3439 61.2294 63.5335C61.5387 63.8762 61.5892 66.8681 61.3048 67.9968C61.0049 69.1871 60.0061 70.9884 59.0567 72.0512C58.5829 72.5817 58.4718 72.6375 58.4658 72.3477L58.4657 72.3476Z" fill="black"/>
<path d="M66.483 63.4753C66.4493 62.7146 65.9665 61.6388 65.6234 61.5598C65.472 61.5249 65.0732 61.8206 64.7372 62.2169C64.0531 63.0234 63.2893 63.5651 63.1203 63.3634C63.059 63.2902 62.9354 62.8802 62.8456 62.4523C62.7122 61.8166 62.7977 61.475 63.3128 60.5852C63.7874 59.7656 63.9751 59.0984 64.0716 57.8888C64.1969 56.3167 64.2097 56.2877 64.6532 56.5651C65.3296 56.988 66.6482 59.0111 66.9749 60.127C67.2795 61.1673 67.1417 63.297 66.739 63.7739C66.556 63.9907 66.5031 63.929 66.483 63.4754V63.4753Z" fill="black"/>
<path d="M67.0361 54.9771C66.2213 53.8297 65.2706 53.0838 64.8513 53.2629C64.6822 53.3351 64.6473 53.664 64.7512 54.2053C64.8943 54.9508 64.8685 55.0256 64.5013 54.9282C64.2761 54.8685 63.9421 54.8196 63.759 54.8196C63.5759 54.8196 63.1244 54.3598 62.7557 53.7979C62.3773 53.2211 61.5007 52.3398 60.743 51.7743L59.4008 50.7725L60.3522 50.5094C61.4664 50.2013 62.0272 50.1847 63.2689 50.423C64.3498 50.6303 66.1237 51.7109 66.7288 52.5306C67.3794 53.4119 67.9524 54.9097 67.8687 55.5105C67.7963 56.0302 67.7736 56.0156 67.0362 54.9773L67.0361 54.9771Z" fill="black"/>
<path d="M30.6149 51.4687C27.2455 48.3045 24.9183 44.384 23.8291 40.0372C23.4243 38.4217 22.9272 33.5208 23.1246 33.0913C23.1997 32.9276 23.7986 32.7153 24.642 32.5533C26.6807 32.1616 27.6088 31.2261 26.5903 30.5892C25.5644 29.9476 23.4784 30.532 22.0079 31.8729C20.8755 32.9056 19.6752 34.592 18.8315 36.3356C18.0657 37.9183 17.8685 37.822 18.264 36.0586C18.8941 33.2494 20.6176 29.6881 22.4477 27.4134C22.9022 26.8484 23.2369 26.3092 23.1915 26.2151C23.1461 26.121 21.9373 25.7731 20.5052 25.4421C18.6446 25.0121 17.3242 24.5749 15.8784 23.9101C13.9745 23.0347 11.296 21.2711 10.6982 20.4995C10.3758 20.0832 10.4613 20.1136 12.4541 21.124C13.2166 21.5105 14.5462 22.0654 15.4087 22.357C16.8901 22.8579 17.1206 22.8871 19.5769 22.8849C21.9235 22.8829 22.3178 22.8379 23.6228 22.4232C25.3838 21.8635 26.4773 21.0998 28.5711 18.9672C32.7549 14.7059 35.0547 13.2074 39.188 12.0504C40.4395 11.7001 40.9096 11.4592 41.6275 10.8001C43.2009 9.35605 45.2219 8.64039 48.8206 8.2528C51.5052 7.96372 51.7335 8.10822 49.6829 8.79843C47.6229 9.49174 46.404 10.3256 46.404 11.0415C46.404 11.7318 46.7461 11.7766 47.8847 11.2353C48.4412 10.9707 49.5855 10.5457 50.4275 10.2909C51.7859 9.87976 52.2383 9.82713 54.4402 9.82398C56.8696 9.82052 58.6153 10.0845 58.3232 10.4111C58.2522 10.4905 57.8108 10.5554 57.3424 10.5554C54.9907 10.5554 51.6917 11.9512 51.8798 12.8664C51.9573 13.2432 51.9906 13.2473 54.5583 13.2002C58.9759 13.1191 61.5114 13.8238 64.781 16.0417C66.8241 17.4275 67.3262 18.0221 65.9629 17.4416C64.5083 16.8223 62.8086 16.2886 61.7575 16.1212C59.7423 15.8003 57.177 15.9837 57.8695 16.3991C57.9984 16.4765 58.8875 16.7466 59.8452 16.9995C62.0615 17.5847 64.7989 18.8473 66.085 19.8776C67.2479 20.8092 68.8584 22.5909 68.8584 22.946C68.8584 23.0805 68.1631 22.703 67.3132 22.1069C66.3178 21.4089 65.2247 20.8385 64.2412 20.5039C62.6684 19.9688 61.0657 19.7965 60.8898 20.1436C60.835 20.2516 61.416 20.6583 62.1809 21.0474C68.0877 24.0523 71.2202 27.4071 70.9403 30.429L70.8677 31.2135L69.9569 29.618C68.4463 26.9713 66.0456 25.1221 64.9422 25.755C64.6317 25.933 64.5757 26.162 64.6768 26.8391C64.8481 27.986 65.9003 29.4048 68.0448 31.3806C70.0731 33.2493 71.0563 34.5529 71.5671 36.05C71.9494 37.171 72.0651 40.3692 71.7284 40.5129C71.6169 40.5605 71.4021 40.0827 71.2511 39.451C70.5788 36.6379 68.6426 33.6924 66.7172 32.5534C65.5075 31.838 64.977 31.7417 64.3077 32.1163C63.6139 32.5046 63.6293 33.4408 64.3542 34.9459C64.6483 35.5567 64.8514 36.0813 64.8056 36.1117C64.7597 36.1421 63.8181 35.6963 62.7131 35.1211C58.9126 33.1428 54.269 31.7509 49.6271 31.199C48.4394 31.0578 47.4309 30.9174 47.3858 30.887C47.3407 30.8566 47.5723 30.3673 47.9003 29.7995C48.8084 28.2281 49.0673 27.3284 48.9605 26.1162C48.8511 24.8745 48.4084 24.1268 47.21 23.1592C45.6067 21.8648 42.2565 21.1765 40.2015 21.7193C37.9845 22.3048 36.9943 23.4714 36.7301 25.8091L36.5619 27.2972L36.0066 26.4806C35.582 25.8561 35.4495 25.3756 35.4433 24.4389C35.43 22.4289 36.6888 21.0497 39.2951 20.219C40.4539 19.8496 40.9268 19.7984 43.213 19.7948C46.2846 19.7899 47.8115 20.1248 49.7943 21.2382C51.6818 22.2981 52.7631 23.7456 53.7411 26.5214C54.0962 27.5291 54.5526 27.3988 55.0024 26.1612C56.7795 21.2726 52.5168 16.45 45.6713 15.6046C43.5349 15.3408 41.3163 15.6041 39.0002 16.3964C36.6259 17.2085 33.8297 19.1678 32.6507 20.8456C30.7868 23.4978 30.5199 26.3202 31.939 28.3708C33.2563 30.2743 34.9503 31.1227 38.4225 31.6177C39.1677 31.724 39.8266 31.8659 39.8867 31.9332C40.0198 32.0819 39.1136 34.5958 38.8623 34.775C38.7637 34.8453 37.4965 34.7012 36.046 34.4547C32.7593 33.8963 32.696 33.9216 33.2214 35.5832C33.428 36.2362 33.8265 37.1921 34.107 37.7073C34.7222 38.8372 36.3901 40.6088 36.8387 40.6088C37.8823 40.6088 40.1404 37.2867 41.002 34.4838C41.4126 33.1479 41.3482 29.2662 40.8868 27.5485C40.6826 26.7884 40.5614 26.1349 40.6174 26.0962C40.9311 25.8794 42.6422 29.4439 43.2422 31.5643C43.7797 33.4635 43.7863 37.0586 43.2559 39.0466C42.7303 41.0168 41.6004 43.3582 40.2837 45.2055C39.1741 46.7622 38.8861 46.9406 37.79 46.7505C36.594 46.5431 33.0918 42.875 30.7979 39.427C29.1823 36.9987 28.8334 37.2686 28.8479 40.9352C28.8607 44.1787 29.6878 47.422 31.4004 50.9458C31.7405 51.6455 31.9762 52.3062 31.9242 52.414C31.8722 52.5218 31.2827 52.0963 30.6142 51.4684L30.6149 51.4687Z" fill="black"/>
<defs>
<clipPath id="clip0">
<rect width="122" height="114" fill="white"/>
</clipPath>
</defs>
</svg>
